<svg data-v-6d42f9e4="" data-bbox="0 0.985 36.248 36.249" xmlns="http://www.w3.org/2000/svg" viewBox="0 0.985 36.248 36.249" height="38" width="37" data-type="color" role="presentation" aria-hidden="true" aria-label=""><g data-v-6d42f9e4=""><path data-v-6d42f9e4="" fill="#23BE10" d="M18.124 4.24c3.115 0 6.006.96 8.395 2.597l2.097-2.506A18.04 18.04 0 0 0 18.124.985C8.114.985 0 9.1 0 19.11s8.114 18.124 18.124 18.124S36.248 29.12 36.248 19.11c0-3.713-1.117-7.166-3.034-10.04l-1.961 3.057a14.8 14.8 0 0 1 1.74 6.983c0 8.212-6.658 14.869-14.87 14.869-8.21 0-14.867-6.657-14.867-14.869S9.912 4.241 18.124 4.241" clip-rule="evenodd" fill-rule="evenodd" data-color="1"></path><path data-v-6d42f9e4="" fill="#FF8800" d="M17.972 20.48 32.163 1.796c1.524-1.824 3.004-.287 1.876 1.851L20.513 26.873c-1.005 1.725-3.203 1.688-4.404.146l-6.372-8.184c-2.295-2.948 1.818-6.837 4.094-3.829z" clip-rule="evenodd" fill-rule="evenodd" data-color="2"></path></g></svg>