<svg preserveAspectRatio="xMidYMid meet" data-bbox="0 0.001 28 19.529" xmlns="http://www.w3.org/2000/svg" viewBox="0 0.001 28 19.529" height="20" width="28" data-type="color" role="presentation" aria-hidden="true" aria-label="">
    <g>
        <path fill="#ffffff" d="M5.23 6.81c.15-7.802 10.852-9.44 13.38-2.071 3.801-1.878 8.063 1.684 6.84 5.716A4.82 4.82 0 0 1 28 14.697c0 2.663-2.187 4.833-4.872 4.833H6.444C-1.4 19.32-2.411 8.457 5.229 6.81m1.206 11.83h16.692c2.187 0 3.967-1.766 3.967-3.936a3.94 3.94 0 0 0-2.383-3.606.445.445 0 0 1-.242-.576q.282-.697.28-1.452c.022-3.112-3.591-5.02-6.17-3.27-.257.18-.642.023-.694-.276C17.343 2.875 14.808.84 12.078.885 8.661.87 5.908 3.795 6.15 7.17a.44.44 0 0 1-.4.471c-6.856 1.048-6.268 10.79.686 10.999" data-color="1"></path>
        <path fill="#ffffff" d="m11.266 11.681 2.361 2.342V7.836a.452.452 0 0 1 .905 0v6.187l2.36-2.342c.438-.404 1.05.202.642.636l-3.13 3.105a.463.463 0 0 1-.641 0l-3.13-3.105c-.415-.434.188-1.04.633-.636" data-color="1"></path>
    </g>
</svg>