<svg preserveAspectRatio="xMidYMid meet" data-bbox="0 0.001 27.105 81.766" xmlns="http://www.w3.org/2000/svg" viewBox="0 0.001 27.105 81.766" height="82" width="28" data-type="color" role="presentation" aria-hidden="true" aria-label="">
    <g>
        <mask fill="#000000" height="82" width="28" y="0" x="0" maskUnits="userSpaceOnUse" id="475e46dd-79fc-4114-a30c-2fc993a83479_comp-m47xz7x5">
            <path fill="#ffffff" d="M28 0v82H0V0z"></path>
            <path d="M12.04 14.786c-.495.069-.017.245-.017.245 3.605.74 4.579-3.358 4.523-3.488-.048-.109-.869.71-2.635.91-1.763.202-2.721 1.946-2.26 2.036.988.187 2.703-.942 2.703-.942-.347.425-1.61 1.136-2.315 1.239zm.446 48.993s.554-.353-.1-.31c-.927.066-2.752-.494-3.327-.943 0 0 2.48.978 3.676.468.563-.24-1.145-2.206-3.45-1.979-2.307.225-3.607-.59-3.634-.438-.031.18 2.479 5.127 6.834 3.202zM6.514 24.665s.59.096.145-.258c-.634-.503-1.425-1.937-1.491-2.56 0 0 .97 2.11 2.072 2.49.521.177.708-2.111-.919-3.323-1.623-1.213-1.908-2.501-2.025-2.418-.142.098-1.85 4.735 2.218 6.07m17.137 51.337.025-.02c3.622-3.527-.921-7.664-1.13-7.696-.177-.028.266 1.508-.784 3.648a3.7 3.7 0 0 0-.367 1.62 52 52 0 0 1-2.361-2.987c3.972-2.661.568-7.22.382-7.286-.156-.056-.039 1.439-1.412 3.245a3.4 3.4 0 0 0-.657 1.595 63 63 0 0 1-1.792-2.911c3.736-2.544.582-6.97.405-7.035-.153-.057-.07 1.408-1.457 3.15a3.2 3.2 0 0 0-.53.967 66 66 0 0 1-1.767-3.726c.092 0 .189-.021.189-.021 4.335-1.648 2.218-6.59 2.061-6.69-.136-.084-.367 1.326-2.06 2.723a3.45 3.45 0 0 0-1.119 1.75A63 63 0 0 1 9.82 52.23c1.169-.473 2.188-2.66 2.188-2.66-.075.677-.94 2.228-1.633 2.773-.488.383.153.28.153.28 4.423-1.43 2.598-6.469 2.446-6.575-.13-.087-.445 1.307-2.212 2.612a3.54 3.54 0 0 0-1.357 2.214c-.44-1.504-.82-3.02-1.133-4.538 1.104-.504 2.15-2.358 2.15-2.358-.126.65-1.082 2.087-1.79 2.569-.501.337.124.28.124.28 4.386-1.078 3.012-6.076 2.873-6.187-.119-.096-.53 1.23-2.34 2.374a3.4 3.4 0 0 0-1.342 1.618 46 46 0 0 1-.4-2.764 53 53 0 0 1-.249-2.776c1.157-.322 2.485-1.956 2.485-1.956-.235.612-1.408 1.858-2.176 2.216-.545.252.074.29.074.29 4.431-.377 3.959-5.424 3.844-5.555-.095-.109-.726 1.11-2.677 1.945a3.46 3.46 0 0 0-1.628 1.453 56 56 0 0 1 .012-4.238q.036.017.08.014c1.19-.109 2.724-1.958 2.724-1.958-.237.6-1.41 1.824-2.172 2.171-.537.244.071.287.071.287 4.38-.34 3.959-5.328 3.848-5.455-.094-.11-.726 1.09-2.658 1.898a3.48 3.48 0 0 0-1.833 1.828q.13-2.065.4-4.077c.053.014.099.022.099.022 4.303.153 4.52-4.75 4.425-4.887-.078-.12-.838.985-2.825 1.555-.509.15-.936.404-1.278.7a55 55 0 0 1 1.006-4.434c.06.03.117.055.117.055 4.21.862 5.346-3.926 5.281-4.074-.056-.129-1.015.827-3.076 1.063-.639.07-1.19.32-1.627.63 1.097-3.388 2.508-6.522 4.158-9.296-.001.096.032.164.115.182 1.042.237 2.92-.904 2.92-.904-.386.444-1.764 1.153-2.517 1.237-.534.055-.032.26-.032.26 3.813.925 5.026-3.41 4.971-3.55-.046-.12-.957.723-2.847.872-.854.067-1.544.48-2 .916a34 34 0 0 1 2.726-3.732l-.06-.645c.416-.588 1.341-1.338 1.823-1.503 0 0-1.663 1.205-1.763 2.148-.047.444 2.018.099 2.748-1.424.729-1.525 1.805-2.02 1.709-2.094-.114-.088-4.587-.432-4.902 3.022 0 0 .01.125.049.19a34 34 0 0 0-1.559 1.95c.123-.62.078-1.424-.398-2.137-1.004-1.511-.832-2.696-.96-2.663-.152.045-3.128 3.553-.059 5.862 0 0 .476.254.206-.18-.38-.616-.598-2.074-.451-2.632 0 0 .147 2.074.965 2.725a41 41 0 0 0-2.661 4.46A2.74 2.74 0 0 0 11.2 9.55C9.976 8.347 9.895 7.224 9.782 7.28c-.131.066-2.154 3.81 1.128 5.388 0 0 .488.147.153-.203-.473-.496-.966-1.797-.944-2.335 0 0 .557 1.897 1.447 2.336q.006.003.014.002a49 49 0 0 0-2.078 4.913c.045-.713-.145-1.66-.854-2.4-1.387-1.448-1.441-2.76-1.574-2.7-.153.074-2.656 4.381 1.12 6.33 0 0 .567.187.186-.231-.535-.596-1.063-2.13-1.018-2.757 0 0 .584 2.23 1.604 2.776.063.034.128.022.19-.02A54.4 54.4 0 0 0 6.65 29.76a3.42 3.42 0 0 0-1.556-2.025c-1.805-1.037-2.263-2.308-2.375-2.21-.13.112-1.242 5.006 3.053 5.883 0 0 .611.031.11-.275-.707-.438-1.7-1.794-1.848-2.418 0 0 1.257 2.022 2.426 2.275.022.006.04 0 .066-.003a56 56 0 0 0-.22 5.07 3.62 3.62 0 0 0-2.298-1.814c-2.069-.516-2.904-1.62-2.983-1.497-.09.148.345 5.194 4.78 4.877 0 0 .6-.136.02-.297-.82-.234-2.2-1.28-2.54-1.846 0 0 1.821 1.592 3.032 1.548q.041 2.162.259 4.343.067.66.153 1.318c-.43-.657-1.311-1.438-2.532-1.617-2.16-.317-3.131-1.355-3.193-1.224-.078.159.93 5.23 5.39 4.468 0 0 .596-.197-.01-.304-.86-.152-2.377-1.078-2.782-1.616 0 0 2.046 1.452 3.263 1.267A59 59 0 0 0 8.034 49.5c-.33-.706-1.387-1.782-2.908-1.947-2.241-.24-3.29-1.27-3.35-1.132-.069.165 1.198 5.353 5.764 4.393 0 0 .603-.225-.029-.315-.895-.123-2.498-1.014-2.94-1.554 0 0 2.186 1.42 3.434 1.174.09-.017.13-.088.14-.188a67 67 0 0 0 1.671 5.464c-.512-.635-1.542-1.374-2.86-1.416-2.25-.074-3.384-1.023-3.434-.879-.054.172 1.655 5.246 6.12 3.944 0 0 .583-.272-.056-.311-.896-.057-2.575-.825-3.061-1.326 0 0 2.3 1.25 3.522.91a.2.2 0 0 0 .083-.05 71 71 0 0 0 5.362 11.43c-.759-.395-1.858-.675-2.994-.377-2.28.59-3.734-.024-3.733.135 0 .187 3.42 4.767 7.454 2.139 0 0 .491-.447-.156-.295-.92.207-2.86-.064-3.518-.424 0 0 2.452.54 3.66.013a57 57 0 0 0 2.75 4.077 4.5 4.5 0 0 0-2.305.001c-2.41.671-3.968.044-3.965.212.006.197 3.732 5.002 7.963 2.139 0 0 .045-.041.086-.095 1.583 1.88 3.22 3.498 4.868 4.778L26 78.137A32 32 0 0 1 23.65 76zM9.276 20.348c1.152-.11 2.679-1.115 2.679-1.115-.407.499-1.88 1.33-2.7 1.448l-.079.015.1-.35zm-1.5 6.99c1.102-.328 2.363-1.519 2.363-1.519-.306.56-1.603 1.623-2.386 1.873l-.025.01q.022-.183.048-.363m4.188 30.672c.99-.735 1.73-2.584 1.73-2.584-.033.678-.812 2.273-1.468 2.85a1 1 0 0 0-.101.102zm3.367 6.804-.191-.341c.63-1.002.861-2.555.861-2.555.105.618-.221 2.083-.67 2.896m3.485 5.448-.208-.295c.706-1.036.94-2.865.94-2.865.13.678-.231 2.382-.731 3.16zm1.66 4.745c-.974.243-3.038-.015-3.746-.387 0 0 2.162.379 3.518.007q.147.184.3.369c-.026.003-.041.003-.071.01zm2.582.389c.522-1.216.438-3.15.438-3.15.286.698.266 2.603-.109 3.489-.108-.11-.221-.225-.33-.34"></path>
        </mask>
        <path fill="#F0A800" d="M12.04 14.786c-.495.069-.017.245-.017.245 3.605.74 4.579-3.358 4.523-3.488-.048-.109-.869.71-2.635.91-1.763.202-2.721 1.946-2.26 2.036.988.187 2.703-.942 2.703-.942-.347.425-1.61 1.136-2.315 1.239zm.446 48.993s.554-.353-.1-.31c-.927.066-2.752-.494-3.327-.943 0 0 2.48.978 3.676.468.563-.24-1.145-2.206-3.45-1.979-2.307.225-3.607-.59-3.634-.438-.031.18 2.479 5.127 6.834 3.202zM6.514 24.665s.59.096.145-.258c-.634-.503-1.425-1.937-1.491-2.56 0 0 .97 2.11 2.072 2.49.521.177.708-2.111-.919-3.323-1.623-1.213-1.908-2.501-2.025-2.418-.142.098-1.85 4.735 2.218 6.07m17.137 51.337.025-.02c3.622-3.527-.921-7.664-1.13-7.696-.177-.028.266 1.508-.784 3.648a3.7 3.7 0 0 0-.367 1.62 52 52 0 0 1-2.361-2.987c3.972-2.661.568-7.22.382-7.286-.156-.056-.039 1.439-1.412 3.245a3.4 3.4 0 0 0-.657 1.595 63 63 0 0 1-1.792-2.911c3.736-2.544.582-6.97.405-7.035-.153-.057-.07 1.408-1.457 3.15a3.2 3.2 0 0 0-.53.967 66 66 0 0 1-1.767-3.726c.092 0 .189-.021.189-.021 4.335-1.648 2.218-6.59 2.061-6.69-.136-.084-.367 1.326-2.06 2.723a3.45 3.45 0 0 0-1.119 1.75A63 63 0 0 1 9.82 52.23c1.169-.473 2.188-2.66 2.188-2.66-.075.677-.94 2.228-1.633 2.773-.488.383.153.28.153.28 4.423-1.43 2.598-6.469 2.446-6.575-.13-.087-.445 1.307-2.212 2.612a3.54 3.54 0 0 0-1.357 2.214c-.44-1.504-.82-3.02-1.133-4.538 1.104-.504 2.15-2.358 2.15-2.358-.126.65-1.082 2.087-1.79 2.569-.501.337.124.28.124.28 4.386-1.078 3.012-6.076 2.873-6.187-.119-.096-.53 1.23-2.34 2.374a3.4 3.4 0 0 0-1.342 1.618 46 46 0 0 1-.4-2.764 53 53 0 0 1-.249-2.776c1.157-.322 2.485-1.956 2.485-1.956-.235.612-1.408 1.858-2.176 2.216-.545.252.074.29.074.29 4.431-.377 3.959-5.424 3.844-5.555-.095-.109-.726 1.11-2.677 1.945a3.46 3.46 0 0 0-1.628 1.453 56 56 0 0 1 .012-4.238q.036.017.08.014c1.19-.109 2.724-1.958 2.724-1.958-.237.6-1.41 1.824-2.172 2.171-.537.244.071.287.071.287 4.38-.34 3.959-5.328 3.848-5.455-.094-.11-.726 1.09-2.658 1.898a3.48 3.48 0 0 0-1.833 1.828q.13-2.065.4-4.077c.053.014.099.022.099.022 4.303.153 4.52-4.75 4.425-4.887-.078-.12-.838.985-2.825 1.555-.509.15-.936.404-1.278.7a55 55 0 0 1 1.006-4.434c.06.03.117.055.117.055 4.21.862 5.346-3.926 5.281-4.074-.056-.129-1.015.827-3.076 1.063-.639.07-1.19.32-1.627.63 1.097-3.388 2.508-6.522 4.158-9.296-.001.096.032.164.115.182 1.042.237 2.92-.904 2.92-.904-.386.444-1.764 1.153-2.517 1.237-.534.055-.032.26-.032.26 3.813.925 5.026-3.41 4.971-3.55-.046-.12-.957.723-2.847.872-.854.067-1.544.48-2 .916a34 34 0 0 1 2.726-3.732l-.06-.645c.416-.588 1.341-1.338 1.823-1.503 0 0-1.663 1.205-1.763 2.148-.047.444 2.018.099 2.748-1.424.729-1.525 1.805-2.02 1.709-2.094-.114-.088-4.587-.432-4.902 3.022 0 0 .01.125.049.19a34 34 0 0 0-1.559 1.95c.123-.62.078-1.424-.398-2.137-1.004-1.511-.832-2.696-.96-2.663-.152.045-3.128 3.553-.059 5.862 0 0 .476.254.206-.18-.38-.616-.598-2.074-.451-2.632 0 0 .147 2.074.965 2.725a41 41 0 0 0-2.661 4.46A2.74 2.74 0 0 0 11.2 9.55C9.976 8.347 9.895 7.224 9.782 7.28c-.131.066-2.154 3.81 1.128 5.388 0 0 .488.147.153-.203-.473-.496-.966-1.797-.944-2.335 0 0 .557 1.897 1.447 2.336q.006.003.014.002a49 49 0 0 0-2.078 4.913c.045-.713-.145-1.66-.854-2.4-1.387-1.448-1.441-2.76-1.574-2.7-.153.074-2.656 4.381 1.12 6.33 0 0 .567.187.186-.231-.535-.596-1.063-2.13-1.018-2.757 0 0 .584 2.23 1.604 2.776.063.034.128.022.19-.02A54.4 54.4 0 0 0 6.65 29.76a3.42 3.42 0 0 0-1.556-2.025c-1.805-1.037-2.263-2.308-2.375-2.21-.13.112-1.242 5.006 3.053 5.883 0 0 .611.031.11-.275-.707-.438-1.7-1.794-1.848-2.418 0 0 1.257 2.022 2.426 2.275.022.006.04 0 .066-.003a56 56 0 0 0-.22 5.07 3.62 3.62 0 0 0-2.298-1.814c-2.069-.516-2.904-1.62-2.983-1.497-.09.148.345 5.194 4.78 4.877 0 0 .6-.136.02-.297-.82-.234-2.2-1.28-2.54-1.846 0 0 1.821 1.592 3.032 1.548q.041 2.162.259 4.343.067.66.153 1.318c-.43-.657-1.311-1.438-2.532-1.617-2.16-.317-3.131-1.355-3.193-1.224-.078.159.93 5.23 5.39 4.468 0 0 .596-.197-.01-.304-.86-.152-2.377-1.078-2.782-1.616 0 0 2.046 1.452 3.263 1.267A59 59 0 0 0 8.034 49.5c-.33-.706-1.387-1.782-2.908-1.947-2.241-.24-3.29-1.27-3.35-1.132-.069.165 1.198 5.353 5.764 4.393 0 0 .603-.225-.029-.315-.895-.123-2.498-1.014-2.94-1.554 0 0 2.186 1.42 3.434 1.174.09-.017.13-.088.14-.188a67 67 0 0 0 1.671 5.464c-.512-.635-1.542-1.374-2.86-1.416-2.25-.074-3.384-1.023-3.434-.879-.054.172 1.655 5.246 6.12 3.944 0 0 .583-.272-.056-.311-.896-.057-2.575-.825-3.061-1.326 0 0 2.3 1.25 3.522.91a.2.2 0 0 0 .083-.05 71 71 0 0 0 5.362 11.43c-.759-.395-1.858-.675-2.994-.377-2.28.59-3.734-.024-3.733.135 0 .187 3.42 4.767 7.454 2.139 0 0 .491-.447-.156-.295-.92.207-2.86-.064-3.518-.424 0 0 2.452.54 3.66.013a57 57 0 0 0 2.75 4.077 4.5 4.5 0 0 0-2.305.001c-2.41.671-3.968.044-3.965.212.006.197 3.732 5.002 7.963 2.139 0 0 .045-.041.086-.095 1.583 1.88 3.22 3.498 4.868 4.778L26 78.137A32 32 0 0 1 23.65 76zM9.276 20.348c1.152-.11 2.679-1.115 2.679-1.115-.407.499-1.88 1.33-2.7 1.448l-.079.015.1-.35zm-1.5 6.99c1.102-.328 2.363-1.519 2.363-1.519-.306.56-1.603 1.623-2.386 1.873l-.025.01q.022-.183.048-.363m4.188 30.672c.99-.735 1.73-2.584 1.73-2.584-.033.678-.812 2.273-1.468 2.85a1 1 0 0 0-.101.102zm3.367 6.804-.191-.341c.63-1.002.861-2.555.861-2.555.105.618-.221 2.083-.67 2.896m3.485 5.448-.208-.295c.706-1.036.94-2.865.94-2.865.13.678-.231 2.382-.731 3.16zm1.66 4.745c-.974.243-3.038-.015-3.746-.387 0 0 2.162.379 3.518.007q.147.184.3.369c-.026.003-.041.003-.071.01zm2.582.389c.522-1.216.438-3.15.438-3.15.286.698.266 2.603-.109 3.489-.108-.11-.221-.225-.33-.34" data-color="1"></path>
        <path mask="url(#475e46dd-79fc-4114-a30c-2fc993a83479_comp-m47xz7x5)" fill="#FFEA00" d="m12.04 14.786.139.99-.138-1.99zm-.017.245-.347.938.071.027.075.015zm4.523-3.488.92-.394-.006-.011zm-2.635.91-.113-.993zm-2.26 2.036-.193.981.007.002zm2.703-.942.775.632-1.325-1.467zm-2.315 1.239-.145-.99.145 1.99zm.447 48.993v1h.292l.246-.157zm-.1-.31-.067-.997h-.004zm-3.327-.943.367-.93-.982 1.719zm3.676.468-.392-.92zm-3.45-1.979.097.995h.001zm-3.634-.438-.984-.175v.002zm6.834 3.202v-1h-.211l-.193.085zm-5.97-39.114-.313.95.074.025.078.012zm.144-.258.622-.783zm-1.491-2.56.909-.418-1.904.523zm2.072 2.49-.325.945h.002zm-.919-3.323-.598.801v.001zm-2.025-2.418.567.824.012-.008zm19.355 57.406h-1v2l1.6-1.2zm.025-.02.627.78.037-.03.034-.034zm-1.13-7.696-.159.987.005.001zm-.784 3.648-.897-.44-.002.004zm-.367 1.62-.76.65 1.76 2.056v-2.706zm-2.361-2.987-.557-.831-.868.581.62.842zm.382-7.286.338-.942-.006-.002zm-1.412 3.245.795.607v-.002zm-.657 1.595-.836.548 1.438 2.195.387-2.596zm-1.792-2.911-.562-.827-.77.524.467.805zm.405-7.035.346-.938zm-1.457 3.15.778.628.004-.005zm-.53.967-.89.456 1.069 2.083.766-2.212zm-1.767-3.726v-1H10.68l.61 1.4zm.189-.021.214.977.072-.016.069-.026zm2.061-6.69.534-.845-.004-.002zm-2.06 2.723-.637-.772-.001.002zm-1.119 1.75-.93.368 1.099 2.783.795-2.884zM9.82 52.23l-.375-.927-.858.348.28.882zm2.188-2.66.994.11-1.9-.533zm-1.633 2.773.617.787.001-.001zm.153.28.159.987.076-.012.073-.024zm2.446-6.575.571-.82-.011-.008zM10.76 48.66l-.594-.805-.003.002zm-1.357 2.214-.96.28 1.944-.102zM8.27 46.336l-.415-.91-.724.332.16.78zm2.15-2.358.981.189-1.853-.68zm-1.79 2.569.559.83.004-.003zm.124.28.09.997.075-.007.074-.018zm2.873-6.187-.627.78.006.004zm-2.34 2.374.533.846h.002zm-1.342 1.618-.985.172.601 3.437 1.31-3.234zm-.4-2.764.993-.113v-.004zm-.249-2.776-.268-.963-.781.218.051.809zm2.485-1.956.933.359-1.71-.99zm-2.176 2.216.419.908.004-.002zm.074.29-.062.998.073.005.073-.007zm3.844-5.555.754-.657zm-2.677 1.945.392.92zm-1.628 1.453-1 .035.12 3.452 1.743-2.982zm.012-4.238.38-.925-1.321-.542-.058 1.426zm.08.014-.091-.996h-.008zm2.724-1.958.93.367-1.7-1.005zm-2.172 2.171.414.91h.001zm.071.287-.07.997.074.005.074-.005zm3.848-5.455-.763.647.005.006.006.006zm-2.658 1.898-.387-.922zM7.29 32.032l-.998-.062 1.917.456zm.4-4.077.26-.966-1.1-.295-.15 1.128zm.099.022-.185.983.074.014.075.003zm4.425-4.887-.837.547.007.011.008.012zM9.39 24.645l-.276-.96-.006.001zm-1.278.7-.984-.18-.514 2.804 2.153-1.868zm1.006-4.434.441-.897-1.089-.536-.317 1.171zm.117.055-.406.914.1.044.106.022zm5.281-4.074-.917.397v.003zm-3.076 1.063.11.994h.003zm-1.627.63-.951-.308-.93 2.874 2.461-1.751zm4.158-9.296 1 .016.059-3.751-1.918 3.223zm.115.182.222-.975-.006-.001zm2.92-.904.754.656-1.274-1.51zm-2.517 1.237.103.995h.009zm-.032.26-.377.926.07.028.072.018zm4.971-3.55.933-.36v-.001zm-2.847.872.077.997h.002zm-2 .916-.844-.537 1.535 1.26zm2.667-4.377-.817-.578-.212.301.033.367zm1.822-1.503.587.81-.911-1.756zm.985.724.901.433.001-.001zm1.709-2.094.613-.79-.005-.004zm-4.902 3.022-.995-.09-.008.081.006.082zm.049.19.757.652.473-.548-.374-.62zm-1.559 1.95-.98-.195 1.783.79zm-.398-2.137-.832.554v.001zm-.96-2.663-.246-.97-.02.005-.02.006zm-.059 5.862-.601.8.062.046.068.036zm.206-.18-.85.526.001.003zm-.451-2.632.997-.07-1.965-.183zm.965 2.725.823.568.53-.769-.73-.582zm-2.661 4.46-.998-.06 1.887.518zm-.795-2.099.703-.711-.002-.002zM9.782 7.28l-.439-.899-.006.004-.007.003zm1.128 5.388-.434.901.07.034.075.023zm.153-.203-.723.69zm-.944-2.335.96-.282-1.959.24zm1.447 2.336-.442.897.07.034.074.024zm.014.002.897.44.708-1.44H11.58zM9.502 17.38l-.998-.063 1.938.403zm-.854-2.4.723-.692H9.37zm-1.574-2.7-.416-.909-.008.003-.007.004zm1.12 6.33-.458.889.07.036.076.025zm.186-.231-.745.668.006.005zm-1.018-2.757.967-.254-1.965.182zm1.604 2.776-.473.882zm.19-.02.947.32.96-2.842-2.473 1.697zM6.65 29.76l-.963.27 1.957-.16zm-1.556-2.025.502-.865-.004-.003zm-2.375-2.21.658.753zm3.053 5.883-.2.98.074.015.075.004zm.11-.275-.527.85.005.003zm-1.848-2.418.85-.528-1.823.758zM6.46 30.99l.243-.97-.016-.004-.016-.003zm.066-.003.996.088.108-1.216-1.214.134zm-.22 5.07-.889.457 1.89-.46zm-2.298-1.814-.241.97zm-2.983-1.497-.843-.538-.006.009-.005.008zm4.78 4.877.071.997.075-.005.074-.017zm.02-.297-.274.962.007.002zm-2.54-1.846.659-.753-1.517 1.266zm3.032 1.548 1-.02-.02-1.016-1.016.037zm.259 4.343-.995.1v.002zm.153 1.318-.836.548 1.828-.68zm-2.532-1.617.145-.99zm-3.193-1.224.896.444.005-.009.004-.01zm5.39 4.468.168.985.074-.012.07-.023zm-.01-.304-.176.985zm-2.782-1.616.578-.815-1.377 1.417zm3.263 1.267.99-.145-.147-.994-.993.15zM8.034 49.5l-.907.423 1.876-.668zm-2.908-1.947.108-.995h-.002zm-3.35-1.132-.914-.407-.006.014-.006.014zm5.764 4.393.205.978.073-.015.07-.026zm-.029-.315.141-.99-.005-.001zm-2.94-1.554.545-.839-1.319 1.472zm3.434 1.174-.184-.983-.01.002zm.14-.188.968-.25-1.964.16zm1.671 5.464-.778.628 1.721-.96zm-2.86-1.416-.033 1zM3.521 53.1l-.945-.326-.005.013-.004.013zm6.12 3.944.28.96.073-.022.069-.032zm-.056-.311-.063.998h.001zm-3.061-1.326.478-.879-1.196 1.575zm3.522.91.268.964.028-.008.027-.009zm.083-.05.939-.344-.56-1.53-1.11 1.192zm5.362 11.43-.462.887 3.082 1.606-1.757-2.999zm-2.994-.377.251.968h.003zm-3.733.135h1v-.009zm7.454 2.139.546.838.068-.044.06-.054zm-.156-.295.22.975.007-.002zm-3.518-.424.216-.977-.696 1.854zm3.66.013.85-.525-.455-.74-.796.348zm2.75 4.077-.246.97 2.725.691-1.675-2.257zm-2.305.001-.266-.964-.002.001zm-3.965.212-1 .018v.013zm7.963 2.139.56.828.06-.04.052-.047zm.086-.095.765-.644-.806-.958-.756.998zM25.602 80l-.613.79 1.259.977.332-1.558zM26 78.137l.978.209.127-.595-.47-.387zM23.65 76l.709-.706-1.708-1.71V76zM9.277 20.348h-1v1.1l1.095-.105zm2.679-1.115.775.632-1.325-1.467zm-2.7 1.448-.143-.99-.013.002-.012.002zm-.079.015-.962-.272-.454 1.61 1.632-.361zm.1-.35h1l-1.96-.28zm-1.5 6.993-.286-.958-.617.184-.088.637zm2.363-1.52.877.48-1.564-1.207zm-2.386 1.873-.304-.953-.087.028-.081.044zm-.025.01-.993-.123-.163 1.316 1.31-.205zm4.236 30.308-.596-.804-2.433 1.804h3.029zm1.73-2.584.999.05-1.927-.421zm-1.468 2.85-.66-.75-.007.005-.005.005zm-.101.102-.92.394.628 1.462 1.046-1.198zm-.16-.368.919-.396-.26-.604h-.659zm3.366 6.804-.873.489.88 1.57.869-1.576zm-.191-.341-.847-.533-.314.5.286.516zM16 61.918l.986-.168-1.975.02zm2.814 8.344-.819.574.3.426h.52zm-.207-.295-.826-.564-.39.571.397.566zm.94-2.865.981-.19-1.974.064zm-.731 3.16v1h.546l.295-.46zm1.66 4.745.241.97.759-.188v-.782zm-3.747-.387.172-.985-.637 1.87zm3.518.007.778-.627-.41-.51-.633.173zm.3.369.109.994 1.834-.202-1.17-1.427zm-.071.01-.229-.974-.771.181v.793zm2.58.39L22.14 75l-.26.605.453.478zm.439-3.15.925-.38-1.924.424zm-.109 3.489-.712.701 1.05 1.067.583-1.378zm-11.485-61.94a2 2 0 0 0-.32.072 1.16 1.16 0 0 0-.479.298 1.04 1.04 0 0 0-.25.994c.078.282.25.451.316.512a1.5 1.5 0 0 0 .454.278l.044.017.005.002h.002v.001h.001l.348-.937.347-.938h.003l.002.002.004.001.004.002.003.001.026.015a.9.9 0 0 1 .227.216.96.96 0 0 1-.085 1.21c-.154.163-.316.216-.34.224-.045.015-.064.015-.035.011zm-.08 2.216c1.101.226 2.06.09 2.863-.29.79-.373 1.369-.95 1.782-1.52a6.6 6.6 0 0 0 1.024-2.216 3 3 0 0 0 .044-.24 1.4 1.4 0 0 0 .009-.285 1 1 0 0 0-.079-.311l-1.838.788a1 1 0 0 1-.076-.442l.002-.016-.012.057a4.6 4.6 0 0 1-.694 1.49c-.274.379-.61.695-1.016.887-.391.185-.907.283-1.607.139zm5.638-4.873a1.01 1.01 0 0 0-.94-.605c-.206.002-.364.067-.405.083-.107.044-.213.106-.255.13-.125.073-.254.152-.435.242-.35.176-.884.388-1.627.472l.226 1.987a6.8 6.8 0 0 0 2.297-.67c.25-.126.446-.245.544-.301.07-.04.05-.026.003-.007-.01.004-.144.063-.332.064a.98.98 0 0 1-.904-.585zm-3.662.322c-1.187.135-2.084.784-2.613 1.404-.258.304-.479.66-.583 1.016a1.4 1.4 0 0 0-.028.751 1.13 1.13 0 0 0 .884.84l.385-1.963a.87.87 0 0 1 .67.629c.026.106.024.19.02.23a.4.4 0 0 1-.012.075c-.002.008.005-.019.04-.078q.049-.084.147-.203c.276-.324.74-.648 1.316-.713zm-2.333 4.012c.459.086.92.011 1.281-.085.378-.1.744-.25 1.05-.394a10 10 0 0 0 1.106-.61h.001l-.55-.836-.549-.836h.001-.001l-.01.007-.046.029-.182.11a8 8 0 0 1-.618.325 4.4 4.4 0 0 1-.715.272c-.237.063-.362.06-.397.053zm2.113-2.556c.004-.005-.01.012-.052.049q-.06.054-.165.128c-.139.1-.315.21-.509.316-.415.226-.783.362-.958.387l.29 1.98c.53-.078 1.146-.35 1.625-.61.463-.253 1.015-.614 1.32-.987zm-1.539 2.87h.002v-2h-.002zm.447 47.993.538.843h.001l.002-.002q.003 0 .005-.003l.045-.03q.039-.026.1-.073c.053-.042.208-.163.33-.341.056-.082.19-.296.198-.599.01-.394-.195-.72-.47-.905a1.2 1.2 0 0 0-.543-.192 2 2 0 0 0-.373-.005l.133 1.995c.049-.003.046 0 .012-.003-.015-.002-.169-.017-.344-.134a.95.95 0 0 1-.347-1.132 1 1 0 0 1 .083-.155.5.5 0 0 1 .082-.098l.011-.01-.005.004.002-.002h.002v-.001zm-.17-1.307c-.284.02-.834-.063-1.445-.241-.626-.183-1.068-.393-1.197-.493l-1.23 1.577c.446.348 1.204.643 1.867.836.677.197 1.502.361 2.144.316zm-3.257.054-.366.93.001.001.003.001.034.014a9 9 0 0 0 .418.148c.271.09.649.206 1.071.305.418.098.904.186 1.386.21.466.023 1.02-.008 1.521-.221l-.784-1.84c-.098.041-.302.08-.637.063a6 6 0 0 1-1.029-.16 11 11 0 0 1-1.25-.38l-.002-.001zm4.068 1.388a1.17 1.17 0 0 0 .715-1.048 1.56 1.56 0 0 0-.206-.793c-.205-.377-.55-.738-.943-1.038-.798-.61-2.047-1.159-3.506-1.015l.196 1.99c.847-.083 1.604.238 2.095.613.252.194.373.354.402.407.02.039-.043-.053-.037-.235a.83.83 0 0 1 .5-.721zM9.188 60.02a6.7 6.7 0 0 1-2.329-.166c-.272-.07-.472-.137-.65-.194-.066-.021-.197-.063-.32-.084-.048-.008-.22-.038-.426.005a1.03 1.03 0 0 0-.796.821l1.969.35a.98.98 0 0 1-.756.785c-.183.04-.322.011-.327.01-.04-.006-.046-.012.05.019.145.046.42.139.764.226a8.7 8.7 0 0 0 3.015.218zm-4.522.384a1.04 1.04 0 0 0 .025.466c.016.061.036.116.052.156.032.083.074.174.12.265.092.186.224.42.392.679a8.5 8.5 0 0 0 1.51 1.75c1.365 1.19 3.487 2.14 6.124.974l-.808-1.83c-1.719.76-3.028.198-4-.65a6.5 6.5 0 0 1-1.15-1.336c-.13-.2-.223-.367-.279-.479a1 1 0 0 1-.045-.097q-.001-.007.014.044.008.024.02.098c.004.03.022.152-.005.307zm7.819 4.375v-2h-.001zm-5.97-40.114-.161.987h.004l.005.002.013.002a2 2 0 0 0 .152.016c.065.005.246.016.441-.027.09-.02.31-.077.513-.261a1.05 1.05 0 0 0 .326-.964 1.17 1.17 0 0 0-.265-.547 2 2 0 0 0-.262-.249L6.036 25.19c.028.023.013.014-.019-.023a.9.9 0 0 1-.178-.393.946.946 0 0 1 .699-1.08.6.6 0 0 1 .117-.016h.016-.007.009v.001h.001zm.765-1.042c-.166-.131-.446-.482-.711-.947a5 5 0 0 1-.303-.613 3 3 0 0 1-.1-.3l-.004-.022-1.989.21c.057.532.363 1.2.659 1.717.305.533.737 1.15 1.205 1.522zm-2.112-1.777-.909.418v.001l.005.01.011.023.039.08q.05.102.14.273c.118.223.29.528.502.85.21.318.475.673.78.986.296.302.693.628 1.18.795l.649-1.892c-.065-.022-.203-.102-.4-.302a5 5 0 0 1-.54-.69 8 8 0 0 1-.549-.97zm1.749 3.436c.459.157.895.008 1.179-.254.233-.216.346-.483.403-.666.122-.388.137-.85.078-1.295-.118-.907-.582-2.053-1.658-2.855l-1.195 1.604c.55.41.806 1.014.87 1.51.034.256.006.408-.003.437-.008.025.017-.083.147-.203a.83.83 0 0 1 .825-.17zm.003-5.069a5.2 5.2 0 0 1-1.327-1.423c-.123-.196-.2-.35-.278-.494-.026-.049-.089-.168-.165-.27-.03-.039-.139-.185-.33-.296a1.03 1.03 0 0 0-1.103.05l1.158 1.632a.98.98 0 0 1-1.054.05.9.9 0 0 1-.271-.236c-.032-.042-.04-.065.002.015.06.112.177.34.343.607.34.546.897 1.272 1.828 1.967zm-3.191-2.44a1 1 0 0 0-.3.317 2 2 0 0 0-.075.138 3 3 0 0 0-.106.25 7.3 7.3 0 0 0-.42 2.737c.038.791.233 1.687.768 2.501.544.83 1.393 1.501 2.606 1.9l.624-1.901c-.82-.27-1.283-.677-1.558-1.096-.285-.434-.416-.953-.442-1.5a5.3 5.3 0 0 1 .294-1.936l.03-.074.002-.006-.024.043a1 1 0 0 1-.264.273zM24.25 76.802l.034-.027.011-.008.004-.004h.002v-.001h.001l-.627-.78-.626-.78.002-.001.001-.001-.002.002zm.123-.104c1.063-1.035 1.576-2.171 1.679-3.312.101-1.117-.198-2.15-.604-2.995a9 9 0 0 0-1.978-2.654 4 4 0 0 0-.238-.198 2 2 0 0 0-.251-.155 1 1 0 0 0-.283-.086l-.307 1.976a1 1 0 0 1-.257-.078l-.077-.04-.026-.017q.02.013.103.087a7 7 0 0 1 1.511 2.03c.304.633.474 1.299.415 1.95-.057.628-.334 1.331-1.082 2.06zm-1.67-9.4a1.02 1.02 0 0 0-1.021.453c-.129.196-.158.389-.167.441-.02.136-.02.285-.02.353 0 .192.006.405-.012.686a6 6 0 0 1-.62 2.263l1.796.88a8 8 0 0 0 .82-3.011c.023-.367.017-.667.017-.822 0-.105.003-.088-.005-.04a.9.9 0 0 1-.136.345.97.97 0 0 1-.969.427zm-1.841 4.2a4.7 4.7 0 0 0-.468 2.056h2a2.7 2.7 0 0 1 .268-1.184zm1.292 1.406a51 51 0 0 1-2.315-2.93l-1.612 1.185a53 53 0 0 0 2.407 3.045zm-2.565-1.506c1.172-.785 1.857-1.755 2.165-2.8.302-1.025.217-2.038-.002-2.894a8.3 8.3 0 0 0-1.34-2.804 3 3 0 0 0-.186-.227 2 2 0 0 0-.213-.196 1 1 0 0 0-.26-.138l-.675 1.883c-.13-.046-.216-.11-.238-.125a1 1 0 0 1-.07-.056l-.026-.026.074.092a6.3 6.3 0 0 1 .997 2.091c.159.624.191 1.254.02 1.834-.165.56-.543 1.158-1.359 1.704zm.158-9.06a1.02 1.02 0 0 0-1.077.255 1.1 1.1 0 0 0-.242.39 2 2 0 0 0-.086.33c-.037.177-.072.373-.141.629a5.7 5.7 0 0 1-.994 1.979l1.592 1.21a7.7 7.7 0 0 0 1.331-2.662c.092-.337.143-.618.172-.76.02-.098.02-.08.002-.032-.004.01-.054.159-.196.306a.97.97 0 0 1-1.024.24zm-2.539 3.581a4.4 4.4 0 0 0-.85 2.054l1.977.295c.06-.402.2-.791.463-1.135zm.975 1.654a62 62 0 0 1-1.764-2.865l-1.73 1.004a64 64 0 0 0 1.82 2.957zm-2.066-1.537c1.114-.758 1.765-1.699 2.061-2.708.29-.99.217-1.969.018-2.799a8.2 8.2 0 0 0-1.24-2.724 3 3 0 0 0-.177-.225 1.6 1.6 0 0 0-.21-.2 1 1 0 0 0-.264-.143l-.692 1.876a1 1 0 0 1-.314-.19l-.028-.03q.01.01.065.085a6.2 6.2 0 0 1 .915 2.018c.145.603.172 1.211.008 1.77-.158.537-.513 1.104-1.268 1.617zm.188-8.8a1.02 1.02 0 0 0-1.074.233c-.162.16-.231.335-.25.384-.05.124-.08.263-.094.324-.04.175-.079.365-.152.613a5.6 5.6 0 0 1-1.016 1.913l1.565 1.245a7.6 7.6 0 0 0 1.367-2.587c.098-.329.155-.603.186-.742.022-.095.02-.075.002-.027-.005.011-.059.159-.204.302a.97.97 0 0 1-1.02.22zm-2.582 3.462a4.2 4.2 0 0 0-.696 1.267l1.89.654a2.2 2.2 0 0 1 .363-.666zm1.138 1.137a65 65 0 0 1-1.74-3.669l-1.832.8a67 67 0 0 0 1.793 3.782zm-2.656-2.269a2 2 0 0 0 .402-.044h.001a464 464 0 0 0-.429-1.954h.003l.002-.001h.004l.003-.001h-.004q-.017.002.018 0zm.544-.086c1.278-.486 2.146-1.246 2.68-2.156.525-.894.684-1.86.68-2.71a7.8 7.8 0 0 0-.603-2.91 3 3 0 0 0-.124-.256 1.6 1.6 0 0 0-.164-.24 1 1 0 0 0-.23-.198l-1.067 1.692a1 1 0 0 1-.212-.182 1 1 0 0 1-.058-.074l-.022-.036q.006.01.043.094a5.8 5.8 0 0 1 .436 2.12c.004.604-.111 1.19-.404 1.688-.284.484-.776.96-1.666 1.298zm2.236-8.472a1.02 1.02 0 0 0-1.09.003c-.19.12-.294.273-.324.317-.075.11-.135.238-.16.293-.077.16-.153.333-.277.555a5.6 5.6 0 0 1-1.376 1.63l1.274 1.543a7.6 7.6 0 0 0 1.851-2.203c.163-.294.276-.545.335-.67.04-.086.035-.065.005-.021-.007.01-.091.141-.263.249a.97.97 0 0 1-1.035 0zm-3.228 2.8a4.45 4.45 0 0 0-1.445 2.255l1.928.532c.123-.444.369-.896.793-1.248zm.45 2.154a62 62 0 0 1-1.435-4.034l-1.907.605q.668 2.106 1.481 4.163zm-2.013-2.805c.478-.193.875-.53 1.182-.85.315-.33.589-.7.809-1.033a11 11 0 0 0 .711-1.247l.011-.024.005-.01v-.001l-.905-.423-.907-.422v-.001.002l-.007.013-.028.058q-.04.081-.118.227a9 9 0 0 1-.43.725 5.5 5.5 0 0 1-.586.752c-.214.224-.382.337-.488.38zm.819-3.698c-.014.12-.156.525-.458 1.047-.292.506-.605.898-.8 1.051l1.236 1.572c.497-.391.964-1.048 1.296-1.622.323-.56.651-1.27.713-1.827zm-1.258 2.097c-.088.07-.186.155-.273.256-.073.085-.22.272-.273.548-.07.361.052.728.321.976.205.188.43.247.52.267a1.6 1.6 0 0 0 .573.016l.053-.007.005-.001h.003l-.158-.988c-.159-.987-.158-.987-.158-.988h.008q.001 0 0 0h-.012.009a.8.8 0 0 1 .26.064.95.95 0 0 1 .54 1.038.9.9 0 0 1-.176.381c-.03.034-.04.038-.007.012zm1.079 2.018c1.302-.42 2.21-1.134 2.794-2.013.575-.865.79-1.82.835-2.668a7.8 7.8 0 0 0-.434-2.938 3 3 0 0 0-.11-.263 1.6 1.6 0 0 0-.152-.252 1 1 0 0 0-.224-.212l-1.143 1.64a1 1 0 0 1-.262-.273c-.017-.027-.024-.044-.022-.039l.038.094a5.8 5.8 0 0 1 .312 2.136c-.032.603-.18 1.182-.503 1.668-.313.471-.835.923-1.744 1.217zm2.698-8.354a1.02 1.02 0 0 0-1.09-.036c-.187.11-.296.253-.327.294-.079.104-.144.226-.174.28-.084.155-.17.325-.307.54a5.7 5.7 0 0 1-1.468 1.557l1.188 1.61a7.7 7.7 0 0 0 1.972-2.1c.18-.285.306-.53.373-.652.046-.084.04-.066.01-.027-.007.009-.094.13-.262.228a.97.97 0 0 1-1.035-.037zm-3.369 2.637a4.54 4.54 0 0 0-1.744 2.84l1.968.355a2.54 2.54 0 0 1 .97-1.59zm.2 2.737a56 56 0 0 1-1.113-4.459l-1.96.403a58 58 0 0 0 1.153 4.617zm-1.677-3.348c.797-.364 1.462-1.136 1.87-1.674a11 11 0 0 0 .732-1.1l.002-.002v-.001l-.87-.491-.872-.491v-.001.002l-.006.01a5 5 0 0 1-.148.242 9 9 0 0 1-.432.624c-.391.516-.8.923-1.107 1.063zm.751-3.457-.001.007-.007.022q-.008.03-.026.077-.037.098-.109.239a6 6 0 0 1-.376.626c-.32.469-.652.825-.85.96l1.125 1.654c.51-.347 1.01-.95 1.375-1.483.355-.518.73-1.184.833-1.724zm-1.365 1.928a2 2 0 0 0-.286.23c-.077.077-.235.25-.31.514a1.05 1.05 0 0 0 .238 1c.191.209.414.284.503.31a1.6 1.6 0 0 0 .566.057l.038-.002.014-.001h.005l.002-.001h.001l-.09-.996-.089-.996h.009q.001 0 0 0h-.01.013c.008.001.052.005.115.024a.9.9 0 0 1 .393.25.95.95 0 0 1 .216.9.9.9 0 0 1-.203.359c-.03.03-.042.034-.008.011zm.92 2.082c1.297-.319 2.234-.949 2.869-1.762.624-.8.908-1.712 1.018-2.533a7.6 7.6 0 0 0-.194-2.883 3 3 0 0 0-.087-.266 1.5 1.5 0 0 0-.134-.264 1 1 0 0 0-.215-.233l-1.244 1.565a.96.96 0 0 1-.272-.346v.002l.003.005.025.082a5.6 5.6 0 0 1 .135 2.072c-.077.577-.264 1.124-.611 1.568-.337.43-.873.83-1.77 1.05zm3.263-7.937a1.02 1.02 0 0 0-1.08-.128c-.199.093-.32.229-.354.267-.087.097-.161.214-.194.264-.094.145-.19.301-.338.5-.286.385-.756.91-1.537 1.404l1.07 1.69a7.6 7.6 0 0 0 2.072-1.9c.196-.264.337-.492.41-.604.051-.079.042-.06.008-.02-.008.009-.106.124-.285.208A.97.97 0 0 1 11 41.42zM8.754 42.17a4.4 4.4 0 0 0-1.735 2.087l1.854.751c.171-.422.473-.847.948-1.147zm.177 2.29a45 45 0 0 1-.392-2.704l-1.987.225c.106.94.245 1.885.41 2.824zm-.392-2.708a52 52 0 0 1-.244-2.722l-1.996.127q.089 1.41.253 2.828zm-.974-1.695c.833-.232 1.607-.876 2.094-1.334a11 11 0 0 0 .877-.928l.015-.018.004-.006.002-.002-.775-.632-.776-.631v.001l-.009.01a6 6 0 0 1-.184.211 9 9 0 0 1-.525.539c-.467.44-.935.773-1.26.863zm1.283-3.278-.003.007-.01.021q-.014.027-.04.071-.052.09-.147.216a6 6 0 0 1-.473.55c-.392.406-.775.702-.992.803l.846 1.812c.551-.257 1.138-.763 1.583-1.224.433-.447.909-1.033 1.103-1.54zm-1.66 1.666c-.1.046-.21.104-.316.178a1.2 1.2 0 0 0-.387.45 1.05 1.05 0 0 0 .072 1.036c.159.24.371.348.454.387a1.6 1.6 0 0 0 .547.14l.05.004h.009l.063-.997.062-.998h.008q.002 0 0 0h-.009l.014.002c.007.002.05.013.11.041a.9.9 0 0 1 .356.313.95.95 0 0 1 .068.935.9.9 0 0 1-.256.316c-.035.025-.046.027-.008.01zm.576 2.194c1.311-.111 2.325-.579 3.077-1.267.74-.677 1.17-1.517 1.419-2.296a7.5 7.5 0 0 0 .309-2.827 3 3 0 0 0-.04-.273 1.5 1.5 0 0 0-.084-.281 1 1 0 0 0-.167-.264l-1.508 1.314a1 1 0 0 1-.2-.375l-.002-.007v-.003.007l.003.018.008.064a5.5 5.5 0 0 1-.225 2.021c-.174.546-.449 1.048-.863 1.427-.402.368-.991.672-1.896.75zm4.514-7.208a1.02 1.02 0 0 0-1.071-.304c-.203.062-.34.173-.377.204-.096.078-.186.177-.226.22-.114.125-.236.263-.413.433-.346.33-.893.768-1.738 1.13l.787 1.838a7.7 7.7 0 0 0 2.333-1.523c.236-.225.411-.423.503-.523.063-.069.054-.054.017-.025-.007.006-.118.102-.3.158a.97.97 0 0 1-1.022-.294zm-3.823 1.682a4.46 4.46 0 0 0-2.1 1.869l1.727 1.009a2.46 2.46 0 0 1 1.157-1.038zm-.237 2.338a55 55 0 0 1 .012-4.163l-1.998-.081a57 57 0 0 0-.013 4.314zm-1.367-3.278c.105.043.305.109.558.084l-.197-1.99a.84.84 0 0 1 .399.056zm.55.085c.515-.047.987-.269 1.356-.493a7 7 0 0 0 1.029-.777 11 11 0 0 0 .994-1.016l.017-.02.005-.006.001-.002h.001v-.001l-.77-.639-.768-.639-.002.002-.051.06-.17.188c-.147.16-.353.37-.59.582-.24.214-.492.412-.732.558-.253.153-.42.204-.501.21zm1.704-3.321-.013.026q-.013.025-.04.069a3 3 0 0 1-.146.21 6 6 0 0 1-.472.54c-.392.398-.773.686-.986.783l.83 1.82c.55-.25 1.136-.748 1.58-1.2.432-.437.91-1.014 1.107-1.513zM7.45 32.564a2 2 0 0 0-.314.175 1.2 1.2 0 0 0-.388.447c-.157.323-.144.713.064 1.032.156.24.367.351.45.391a1.6 1.6 0 0 0 .543.144l.037.004h.013l.006.001h.003l.07-.997.07-.998h.009-.007l.014.003a.8.8 0 0 1 .253.13.95.95 0 0 1 .274 1.162.9.9 0 0 1-.259.316c-.035.025-.047.027-.01.01zm.562 2.194c1.298-.101 2.306-.556 3.056-1.232.739-.665 1.172-1.492 1.425-2.26a7.4 7.4 0 0 0 .33-2.794 3 3 0 0 0-.035-.27 1.5 1.5 0 0 0-.083-.284 1 1 0 0 0-.171-.271l-1.504 1.319a1 1 0 0 1-.208-.398v.006l.003.018.007.062a5.4 5.4 0 0 1-.24 1.988c-.176.536-.451 1.028-.862 1.398-.399.359-.981.654-1.873.724zm4.532-7.098a1.02 1.02 0 0 0-1.062-.32c-.206.058-.346.17-.384.2-.098.078-.19.176-.23.219-.114.122-.235.257-.411.423a5.6 5.6 0 0 1-1.72 1.1l.773 1.845a7.6 7.6 0 0 0 2.318-1.488c.234-.221.41-.416.5-.513.063-.067.052-.05.014-.02-.008.006-.123.103-.31.156a.98.98 0 0 1-1.014-.31zm-3.807 1.622a4.48 4.48 0 0 0-2.365 2.356l1.838.788a2.48 2.48 0 0 1 1.3-1.3zm-.448 2.812a57 57 0 0 1 .394-4.007L6.7 27.822a59 59 0 0 0-.408 4.148zm-.856-3.174q.071.02.115.028l.037.008.012.003h.007l.001.001.185-.983.184-.983h.002l.002.001-.005-.001-.022-.005zm.321.056c1.28.046 2.318-.287 3.133-.862.8-.565 1.326-1.322 1.668-2.043.342-.72.517-1.439.602-1.984.043-.274.065-.515.071-.705a3 3 0 0 0-.001-.272 1.5 1.5 0 0 0-.049-.294 1 1 0 0 0-.14-.295l-1.645 1.139a.96.96 0 0 1-.163-.431v.081a5.3 5.3 0 0 1-.481 1.904c-.239.502-.569.95-1.015 1.266-.434.306-1.037.529-1.909.498zm5.299-6.432a1.02 1.02 0 0 0-1.016-.45c-.215.034-.368.129-.409.154a2 2 0 0 0-.252.19c-.127.107-.261.225-.453.368a5.6 5.6 0 0 1-1.809.878l.552 1.922a7.6 7.6 0 0 0 2.448-1.194c.256-.19.451-.361.55-.445.07-.059.056-.043.014-.016-.01.005-.136.088-.33.119a.97.97 0 0 1-.97-.433zm-3.945 1.142a4.4 4.4 0 0 0-1.652.905l1.311 1.51a2.4 2.4 0 0 1 .905-.496zm-.013 1.84q.41-2.226.988-4.353l-1.93-.524a56 56 0 0 0-1.025 4.517zm-.419-3.718.104.05.034.015.01.005.003.001h.001l.001.001.406-.914.406-.914-.004-.002-.02-.008-.058-.028zm.359.138c1.253.256 2.335.1 3.238-.328.889-.42 1.545-1.074 2.015-1.724s.778-1.324.964-1.845a6 6 0 0 0 .203-.68q.032-.137.05-.264a1.5 1.5 0 0 0 .01-.295 1 1 0 0 0-.082-.319l-1.833.8a1 1 0 0 1-.077-.297 1 1 0 0 1-.002-.144l.002-.012-.004.022-.013.06a5.5 5.5 0 0 1-.838 1.801c-.331.458-.745.85-1.25 1.089-.492.233-1.13.35-1.982.177zm6.399-5.452a1.02 1.02 0 0 0-.939-.614 1.1 1.1 0 0 0-.415.083c-.114.046-.228.112-.28.142-.144.084-.3.178-.517.287a5.8 5.8 0 0 1-1.957.57l.227 1.987a7.8 7.8 0 0 0 2.625-.768c.286-.144.51-.279.625-.345.079-.046.065-.035.023-.017-.008.003-.142.06-.33.06a.97.97 0 0 1-.897-.59zm-4.104.467a4.5 4.5 0 0 0-2.096.81l1.16 1.629a2.46 2.46 0 0 1 1.156-.451zm-.565 1.932C11.84 15.57 13.22 12.506 14.83 9.8l-1.72-1.023c-1.69 2.843-3.131 6.046-4.249 9.5zm2.206-9.62c-.002.15.018.397.165.644.167.284.438.465.733.53l.433-1.952a.87.87 0 0 1 .556.406c.11.185.114.35.113.404zm.893 1.173c.472.108.955.047 1.34-.041a7 7 0 0 0 1.124-.377 11 11 0 0 0 1.187-.6l.006-.004.002-.001h.001v-.001l-.518-.855-.52-.855h.001l-.002.001-.061.036-.201.112a9 9 0 0 1-.679.327 5 5 0 0 1-.785.267c-.26.06-.403.052-.451.041zm2.387-2.535c.001-.001-.017.018-.065.058a2 2 0 0 1-.185.135 5 5 0 0 1-.563.322c-.454.227-.861.362-1.06.385l.223 1.987c.553-.062 1.212-.324 1.731-.583.502-.251 1.098-.611 1.428-.992zm-1.864.899c-.1.01-.216.027-.332.061a1.2 1.2 0 0 0-.49.276c-.244.235-.384.6-.295.987.066.29.236.47.3.533a1.5 1.5 0 0 0 .457.3l.045.02.005.002h.002v.001h.001l.377-.926.38-.925.003.001.004.002.003.001q-.002 0 0 0l.005.003.017.01c.01.007.053.035.106.087a.93.93 0 0 1 .244.445.96.96 0 0 1-.267.901c-.159.152-.318.197-.339.203-.041.012-.055.01-.021.007zm-.165 2.226c1.152.28 2.165.17 3.023-.197.843-.362 1.476-.947 1.935-1.533.459-.585.767-1.2.959-1.674.096-.239.166-.453.213-.624a3 3 0 0 0 .057-.248 1.5 1.5 0 0 0 .02-.289 1 1 0 0 0-.068-.318l-1.865.723c-.056-.145-.063-.267-.065-.298a1 1 0 0 1 .005-.147l.002-.015q.002-.002-.016.067a5 5 0 0 1-.816 1.589c-.314.4-.695.733-1.15.929-.44.189-1.009.274-1.763.091zm6.138-4.883a1.02 1.02 0 0 0-.91-.649 1.1 1.1 0 0 0-.416.066c-.114.04-.226.101-.273.126-.137.073-.28.152-.48.244a5.2 5.2 0 0 1-1.78.45l.159 1.993a7.2 7.2 0 0 0 2.45-.624c.27-.122.482-.24.588-.296.074-.04.056-.026.009-.01a.9.9 0 0 1-.338.05.98.98 0 0 1-.873-.626zm-3.857.236c-1.135.089-2.031.633-2.613 1.19l1.382 1.445a2.3 2.3 0 0 1 1.386-.64zm-1.078 2.45a33 33 0 0 1 2.645-3.623l-1.527-1.292a35 35 0 0 0-2.806 3.841zm2.877-4.36-.058-.645-1.992.181.059.646zm-.238.023c.138-.194.4-.464.704-.714a4 4 0 0 1 .41-.301 2 2 0 0 1 .2-.113l.016-.006-.648-1.892c-.418.143-.883.468-1.246.766-.383.313-.79.712-1.069 1.105zm1.006-2.08-.587-.81-.001.001-.002.002q-.003 0-.006.004l-.082.061a10 10 0 0 0-.866.747 6 6 0 0 0-.724.84c-.208.301-.439.718-.49 1.197l1.989.212c0 .008.014-.08.146-.27.12-.175.29-.364.479-.55a8 8 0 0 1 .73-.624l.002-.001h-.001zm-2.758 2.043a1.12 1.12 0 0 0 .58 1.105c.256.145.522.173.69.178.364.012.772-.074 1.152-.214.764-.28 1.712-.89 2.222-1.955l-1.803-.865c-.22.458-.67.782-1.108.943a1.3 1.3 0 0 1-.4.092c-.03 0 .077-.006.227.078a.88.88 0 0 1 .43.848zm4.645-.887a4.2 4.2 0 0 1 .943-1.29c.144-.135.261-.226.373-.317.035-.03.133-.108.213-.195.027-.03.156-.167.229-.382a1.02 1.02 0 0 0-.338-1.132l-1.226 1.58a.985.985 0 0 1-.329-1.094c.068-.199.183-.316.188-.322.037-.04.06-.056-.003-.004-.085.07-.265.212-.469.4a6.3 6.3 0 0 0-1.386 1.893zm1.415-3.32a1 1 0 0 0-.377-.182 2 2 0 0 0-.138-.029 3 3 0 0 0-.241-.029 7.5 7.5 0 0 0-2.502.255c-.687.197-1.445.54-2.066 1.142-.638.62-1.081 1.47-1.181 2.569l1.991.181c.058-.628.291-1.031.584-1.315.31-.302.736-.515 1.221-.654a5.5 5.5 0 0 1 1.788-.184l.073.007.006.001h-.003l-.007-.002a.6.6 0 0 1-.12-.036c-.024-.009-.13-.048-.244-.136zm-5.51 3.816-.997.073v.01l.002.014a1 1 0 0 0 .021.153c.01.057.047.258.166.456l1.713-1.033a.8.8 0 0 1 .09.233l.002.008v.013zm-.709-.463a35 35 0 0 0-1.604 2.007l1.606 1.192a33 33 0 0 1 1.513-1.894zm.18 2.798c.161-.81.111-1.9-.547-2.887l-1.663 1.11c.293.44.334.957.248 1.387zm-.546-2.885a4.4 4.4 0 0 1-.662-1.558c-.04-.199-.057-.349-.077-.497-.007-.047-.023-.176-.058-.295-.014-.047-.065-.221-.205-.39a1.02 1.02 0 0 0-1.037-.34l.492 1.939a.98.98 0 0 1-.995-.323.9.9 0 0 1-.173-.32c-.017-.055-.017-.085-.006-.002.015.112.042.347.1.63.119.58.368 1.38.956 2.263zM13.71.454a1 1 0 0 0-.364.194 2 2 0 0 0-.11.098q-.085.086-.172.186a6.9 6.9 0 0 0-1.258 2.255c-.226.7-.354 1.547-.152 2.43.208.902.741 1.751 1.68 2.458l1.203-1.598c-.595-.447-.84-.903-.933-1.308-.098-.427-.048-.893.105-1.365a4.9 4.9 0 0 1 .91-1.612l.015-.016-.007.008a.6.6 0 0 1-.103.077 1 1 0 0 1-.244.111zm.226 6.822-.47.883.002.001q.002 0 .005.003l.011.006a2 2 0 0 0 .133.061 1.5 1.5 0 0 0 .414.113c.09.01.31.026.557-.079.317-.135.556-.422.62-.779a1.15 1.15 0 0 0-.06-.603 2 2 0 0 0-.156-.313l-1.699 1.056c.014.023 0 .003-.02-.049a.86.86 0 0 1-.033-.446.95.95 0 0 1 1.01-.775.6.6 0 0 1 .145.033l.003.001.004.002.002.002h.002v.001zm1.057-.704c-.086-.14-.21-.503-.287-.975a5 5 0 0 1-.06-.598q-.003-.129.003-.21.009-.082.009-.071l-1.935-.507c-.13.493-.079 1.173.009 1.709.09.55.265 1.225.56 1.702zM13.69 4.464l-.997.072v.004l.001.007.002.024.007.08q.01.104.032.276c.03.227.078.54.157.881.079.337.191.725.356 1.091.16.353.403.768.785 1.072l1.246-1.565c-.027-.021-.109-.11-.207-.328a4 4 0 0 1-.231-.722 7 7 0 0 1-.147-.898l-.005-.054-.001-.01v-.002zm.143 2.157a42 42 0 0 0-2.727 4.57l1.778.916c.8-1.55 1.668-3.007 2.595-4.35zm-.84 5.089c.051-.839-.19-1.981-1.09-2.871l-1.406 1.423c.403.397.524.927.5 1.326zM11.9 8.837a4.2 4.2 0 0 1-.911-1.298c-.077-.175-.122-.307-.171-.442-.016-.042-.059-.163-.119-.27a1.1 1.1 0 0 0-.284-.336 1.02 1.02 0 0 0-1.072-.11l.877 1.797a.98.98 0 0 1-1.029-.105c-.16-.123-.232-.261-.24-.276-.03-.053-.038-.086-.011-.012.036.098.109.312.22.562a6.2 6.2 0 0 0 1.337 1.916zm-2.57-2.45a1 1 0 0 0-.334.269 2 2 0 0 0-.088.118 3 3 0 0 0-.126.21 6.4 6.4 0 0 0-.71 2.326c-.069.691-.014 1.502.354 2.284.376.8 1.041 1.49 2.05 1.974l.867-1.802c-.631-.304-.944-.674-1.107-1.022-.172-.366-.219-.79-.175-1.24a4.4 4.4 0 0 1 .473-1.558l.032-.054-.034.044a1 1 0 0 1-.298.235zm1.58 6.28-.288.958h.003l.005.002.012.004a2 2 0 0 0 .138.033c.058.012.227.046.42.029a1.1 1.1 0 0 0 .531-.189c.29-.2.462-.535.449-.896a1.14 1.14 0 0 0-.182-.57 1.7 1.7 0 0 0-.211-.265l-1.447 1.381c.017.018-.003 0-.033-.046-.018-.03-.117-.187-.126-.429a.954.954 0 0 1 .843-.978 1 1 0 0 1 .13 0l.027.004h.003l.004.002h.004l.003.002h.002zm.877-.893c-.102-.107-.287-.412-.452-.83a4 4 0 0 1-.173-.532c-.042-.17-.044-.246-.044-.24l-1.998-.085c-.02.492.168 1.118.356 1.593.194.492.493 1.085.864 1.474zm-1.668-1.645-.96.282.001.002.003.01.03.095q.03.095.086.252c.073.206.183.488.326.79.142.299.326.64.556.95.221.299.537.642.963.852l.885-1.793c-.02-.01-.107-.069-.24-.25a4 4 0 0 1-.356-.615 7 7 0 0 1-.331-.847l-.004-.01zm1.149 3.29a1 1 0 0 0 .306.048h.006v-2h.014a1 1 0 0 1 .27.044zm-.586-1.393a50 50 0 0 0-2.12 5.014l1.88.68a48 48 0 0 1 2.035-4.812zm-.182 5.417c.058-.919-.182-2.164-1.13-3.155L7.926 15.67c.47.493.61 1.14.579 1.647zm-1.13-3.156a5 5 0 0 1-1.053-1.599c-.086-.212-.135-.375-.187-.53a2 2 0 0 0-.117-.295 1.1 1.1 0 0 0-.277-.35 1.03 1.03 0 0 0-1.078-.142l.833 1.818a.98.98 0 0 1-1.03-.134c-.154-.127-.221-.267-.228-.28-.025-.048-.03-.073-.001.012.04.12.115.364.232.653.24.594.664 1.398 1.462 2.231zm-2.727-2.909a1 1 0 0 0-.34.26 2 2 0 0 0-.096.121 3 3 0 0 0-.145.227 7.3 7.3 0 0 0-.893 2.627c-.102.786-.068 1.703.318 2.594.394.909 1.118 1.708 2.249 2.292l.917-1.777c-.757-.391-1.136-.86-1.33-1.31-.203-.467-.241-.997-.17-1.541A5.4 5.4 0 0 1 7.784 13q.043-.071.048-.076c.002-.004-.008.011-.03.035a1 1 0 0 1-.065.067 1 1 0 0 1-.232.155zm1.552 7.232-.313.95.004.002.005.001.012.004a2 2 0 0 0 .148.04c.064.015.24.055.44.043a1.13 1.13 0 0 0 .543-.176 1.05 1.05 0 0 0 .478-.895 1.17 1.17 0 0 0-.174-.585 2 2 0 0 0-.219-.289l-1.478 1.347c.023.026.009.015-.017-.028a.9.9 0 0 1-.112-.42.95.95 0 0 1 .703-.926 1 1 0 0 1 .155-.025c.065-.004.109.002.118.003l.015.003-.005-.001h.004l.002.002h.003zm.93-.899c-.138-.153-.351-.54-.53-1.038a5 5 0 0 1-.19-.649 2 2 0 0 1-.046-.308v-.022l-1.995-.144c-.038.535.148 1.244.349 1.801.207.574.525 1.252.922 1.696zm-1.763-2.09-.967.255v.004l.003.007.03.11q.031.108.09.29c.078.24.194.568.347.919.152.347.35.74.598 1.098.24.346.576.733 1.03.976l.945-1.763c-.056-.03-.174-.127-.331-.352a4.6 4.6 0 0 1-.41-.76 8 8 0 0 1-.368-1.036v-.002.001zm1.131 3.659c.493.264.964.103 1.228-.078l-1.131-1.65a.8.8 0 0 1 .34-.127.85.85 0 0 1 .508.092zm-.285-1.223a55.4 55.4 0 0 0-2.552 11.594l1.988.22a53.4 53.4 0 0 1 2.459-11.174zm-.595 11.435a4.42 4.42 0 0 0-2.017-2.621L4.592 28.6c.614.356.956.935 1.095 1.43zm-2.021-2.624a5.4 5.4 0 0 1-1.545-1.294c-.151-.186-.252-.334-.35-.471-.033-.047-.111-.159-.2-.25a1.1 1.1 0 0 0-.362-.25 1.03 1.03 0 0 0-1.074.17l1.317 1.505a.98.98 0 0 1-1.024.165c-.18-.076-.283-.187-.292-.196-.036-.037-.046-.057.007.018.076.106.224.322.427.571a7.4 7.4 0 0 0 2.1 1.767zm-3.53-2.096a1 1 0 0 0-.267.361c-.026.057-.045.11-.058.149a3 3 0 0 0-.073.264 7.4 7.4 0 0 0-.061 2.812c.142.794.458 1.672 1.1 2.426.655.768 1.594 1.345 2.869 1.605l.4-1.96c-.873-.178-1.405-.541-1.746-.942-.352-.413-.556-.93-.655-1.483a5.4 5.4 0 0 1 .04-2l.022-.085-.004.01-.015.037a1 1 0 0 1-.237.313zm3.71 6.637-.05.999h.021l.038.002.116-.002c.066-.002.249-.01.439-.074.085-.03.304-.112.488-.325.245-.284.316-.668.202-1.015a1.2 1.2 0 0 0-.332-.5 2 2 0 0 0-.29-.213L5.36 31.987c.033.02.02.016-.012-.014a.9.9 0 0 1-.222-.355.947.947 0 0 1 .568-1.179 1 1 0 0 1 .114-.027l.014-.002h-.01.01zm.637-1.125c-.195-.12-.53-.45-.862-.89a6 6 0 0 1-.39-.59 3 3 0 0 1-.142-.294l-.008-.024-1.946.46c.069.292.212.59.353.84.15.267.336.545.535.81.38.503.894 1.07 1.406 1.388zm-2.375-1.568-.848.53.001.002.004.006.064.098q.062.098.176.26c.148.21.362.498.618.797.254.297.567.624.915.902.337.269.777.548 1.284.657l.423-1.954c-.076-.017-.232-.085-.46-.267a5 5 0 0 1-.643-.64 9 9 0 0 1-.684-.918l-.001-.002zm2.183 3.245c.16.04.294.035.375.027.033-.003.062-.008.063-.008l-.02.002-.219-1.988-.055.008.03-.004a.9.9 0 0 1 .312.023zm-.687-1.06a57 57 0 0 0-.224 5.159l2-.005a55 55 0 0 1 .216-4.979zM7.196 35.6c-.453-.88-1.437-1.952-2.947-2.327l-.482 1.941a2.63 2.63 0 0 1 1.65 1.3zM4.25 33.273a5.9 5.9 0 0 1-1.917-.844c-.206-.14-.351-.258-.487-.363a2 2 0 0 0-.263-.182 1.1 1.1 0 0 0-.401-.137 1.03 1.03 0 0 0-1 .462l1.687 1.075a.98.98 0 0 1-.953.445c-.186-.025-.309-.1-.317-.104-.04-.023-.052-.035.022.022.107.083.315.25.586.435.554.377 1.388.84 2.56 1.132zM.171 32.227a1 1 0 0 0-.145.428c-.008.062-.01.119-.01.16a3 3 0 0 0 .01.276 7.6 7.6 0 0 0 .807 2.735c.382.727.953 1.482 1.797 2.03.857.557 1.934.86 3.246.766l-.143-1.995c-.905.065-1.545-.143-2.014-.448-.482-.313-.846-.77-1.116-1.283a5.6 5.6 0 0 1-.583-1.962l-.005-.082v-.006.01a.6.6 0 0 1-.022.14 1 1 0 0 1-.114.272zm5.634 5.398.22.975h.004l.005-.002.013-.003a2 2 0 0 0 .15-.042c.06-.02.238-.078.406-.195a1.1 1.1 0 0 0 .388-.465 1.05 1.05 0 0 0-.11-1.031 1.2 1.2 0 0 0-.45-.373 2 2 0 0 0-.338-.125l-.535 1.928c.04.01.03.011-.006-.007a.9.9 0 0 1-.299-.262.95.95 0 0 1-.096-.93.9.9 0 0 1 .305-.377.6.6 0 0 1 .107-.061l.014-.006h.001zm.296-1.259c-.237-.067-.672-.302-1.133-.641-.475-.35-.764-.655-.824-.756l-1.717 1.026c.279.466.85.967 1.355 1.34.52.383 1.185.788 1.77.954zm-2.815-.884-.658.753v.001l.003.002.006.005.09.076q.089.075.245.198c.206.162.497.378.832.595a7.5 7.5 0 0 0 1.141.617c.401.168.897.319 1.408.3l-.072-1.998c-.095.003-.28-.029-.562-.147a5.5 5.5 0 0 1-.829-.451 10 10 0 0 1-.884-.651l-.05-.042-.011-.01-.002-.001zm2.031 1.568c.03 1.465.115 2.942.264 4.423l1.99-.2a53 53 0 0 1-.254-4.263zm.264 4.425q.068.67.157 1.348l1.983-.265a43 43 0 0 1-.15-1.287zm1.985.667c-.55-.839-1.66-1.828-3.224-2.058l-.29 1.979c.877.129 1.53.702 1.841 1.176zm-3.224-2.058a6.1 6.1 0 0 1-2.051-.669c-.226-.122-.387-.228-.534-.32-.053-.033-.165-.105-.278-.155a1.1 1.1 0 0 0-.41-.1 1.03 1.03 0 0 0-.97.585l1.81.85a.98.98 0 0 1-.925.563.9.9 0 0 1-.322-.073c-.04-.018-.05-.027.032.024.12.075.347.224.642.384a8.1 8.1 0 0 0 2.716.89zm-4.234-.677A1 1 0 0 0 0 39.86c0 .064.003.122.007.164.008.087.023.183.04.279.037.194.098.44.185.718.174.552.469 1.269.934 1.963.466.696 1.125 1.399 2.035 1.867.924.475 2.045.676 3.361.45l-.337-1.971c-.914.156-1.592.009-2.109-.258-.53-.273-.955-.704-1.289-1.202a5.8 5.8 0 0 1-.687-1.45 4 4 0 0 1-.14-.572l-.001-.006v.012a.6.6 0 0 1-.008.146 1 1 0 0 1-.09.292zm6.286 4.91.313.95h.003l.005-.002.013-.005a2 2 0 0 0 .146-.057c.06-.026.234-.102.391-.236.071-.06.252-.226.341-.507a1.05 1.05 0 0 0-.214-1.013 1.2 1.2 0 0 0-.484-.326 2 2 0 0 0-.35-.092l-.35 1.97c.044.007.036.01 0-.005a.9.9 0 0 1-.318-.228.94.94 0 0 1-.19-.91.9.9 0 0 1 .267-.41.6.6 0 0 1 .1-.072l.013-.006-.008.003.003-.001.003-.001h.002v-.001zm.164-1.288c-.25-.044-.72-.24-1.227-.54-.521-.307-.854-.59-.93-.692L2.803 43c.328.436.958.885 1.51 1.212.57.336 1.287.679 1.895.787zm-2.956-.63-.579.815.002.001.002.002q.003 0 .006.004l.023.016a7 7 0 0 0 .35.23c.229.145.55.337.915.524.363.186.79.378 1.23.511.425.13.947.23 1.464.152l-.3-1.977c-.092.014-.282.003-.583-.089a5.6 5.6 0 0 1-.9-.377 10 10 0 0 1-.98-.58l-.058-.038-.012-.01H4.18zm2.274 1.412a60 60 0 0 0 1.188 5.935l1.94-.49a58 58 0 0 1-1.15-5.736zm3.064 5.267c-.458-.98-1.793-2.31-3.706-2.519l-.216 1.989c1.128.122 1.907.943 2.11 1.376zm-3.708-2.519a6.4 6.4 0 0 1-2.158-.61c-.24-.119-.413-.222-.57-.311a2.4 2.4 0 0 0-.292-.147 1.1 1.1 0 0 0-.414-.082 1.02 1.02 0 0 0-.936.605l1.826.816a.98.98 0 0 1-.89.58.9.9 0 0 1-.32-.059c-.04-.015-.048-.023.037.025.127.072.368.215.677.367a8.4 8.4 0 0 0 2.827.805zM.85 46.042a1 1 0 0 0-.077.447c.003.062.01.119.016.16q.019.133.054.28a8.1 8.1 0 0 0 1.27 2.703c.51.693 1.216 1.387 2.168 1.83.966.45 2.123.612 3.464.33l-.411-1.957c-.941.198-1.655.072-2.209-.186-.567-.264-1.03-.698-1.399-1.201a6 6 0 0 1-.781-1.479 5 5 0 0 1-.156-.504l-.02-.098.003.047c0 .016.002.051-.002.098-.003.03-.012.148-.07.289zm6.69 4.772.35.936h.002l.005-.002.013-.005a2 2 0 0 0 .147-.065 1.6 1.6 0 0 0 .39-.259 1.1 1.1 0 0 0 .32-.533 1.05 1.05 0 0 0-.262-.992 1.2 1.2 0 0 0-.493-.304 2 2 0 0 0-.36-.081l-.282 1.98c.045.006.04.009.005-.003a.9.9 0 0 1-.315-.208.94.94 0 0 1-.23-.888.9.9 0 0 1 .248-.43c.052-.048.093-.072.1-.077l.013-.007-.009.004.003-.002h.003l.002-.001zm.107-1.306c-.268-.037-.766-.222-1.302-.51-.551-.297-.911-.578-1-.686l-1.548 1.266c.354.432 1.016.866 1.6 1.18.6.324 1.351.645 1.978.731zm-3.075-.563-.545.839h.001l.003.002.007.005.023.015a9 9 0 0 0 .372.224c.243.14.582.324.968.502.382.177.832.356 1.29.475.443.115.982.196 1.507.093l-.386-1.962c-.1.02-.302.015-.62-.067a6 6 0 0 1-.953-.355 10 10 0 0 1-1.107-.6l-.014-.008-.002-.002zm3.617 2.157a1.15 1.15 0 0 0 .736-.473c.158-.226.202-.46.216-.608l-1.992-.18a.75.75 0 0 1 .137-.358.85.85 0 0 1 .535-.347zm-1.012-.92a68 68 0 0 0 1.696 5.546l1.886-.665a66 66 0 0 1-1.646-5.383zm3.418 4.586c-.653-.81-1.937-1.735-3.608-1.789l-.064 2c.967.03 1.744.583 2.115 1.044zm-3.607-1.789a6.4 6.4 0 0 1-2.203-.45c-.25-.1-.432-.19-.596-.267a2 2 0 0 0-.304-.124 1.1 1.1 0 0 0-.422-.05 1.02 1.02 0 0 0-.886.685l1.89.653a.98.98 0 0 1-.842.656c-.185.015-.32-.03-.327-.032-.04-.013-.05-.02.04.021.131.062.384.187.704.315.654.262 1.616.55 2.88.592zm-4.42-.179a1 1 0 0 0-.039.451q.014.096.029.16.03.131.078.274c.064.193.158.436.284.708a8.2 8.2 0 0 0 1.212 1.887c.566.652 1.327 1.288 2.311 1.657.999.375 2.165.45 3.479.067l-.56-1.92c-.919.267-1.64.197-2.217-.02-.59-.22-1.09-.62-1.503-1.095-.413-.476-.714-1-.907-1.418a5 5 0 0 1-.199-.491l-.029-.097q.001-.006.008.046a1 1 0 0 1-.039.39zm7.074 4.244.422.906h.002l.002-.002.004-.002.013-.006.142-.076a1.6 1.6 0 0 0 .367-.29c.066-.072.227-.264.277-.561a1.05 1.05 0 0 0-.346-.965 1.2 1.2 0 0 0-.513-.261 2 2 0 0 0-.364-.052l-.124 1.996c.047.003.042.006.007-.003a.9.9 0 0 1-.328-.18.94.94 0 0 1-.305-.864.9.9 0 0 1 .214-.452c.048-.053.088-.082.094-.087l.013-.008-.008.004.004-.002h.002l.001-.001h.001zm.007-1.31c-.269-.016-.782-.164-1.343-.412-.576-.255-.964-.509-1.064-.612l-1.435 1.393c.386.398 1.082.78 1.69 1.048.625.276 1.399.54 2.026.58zm-3.124-.327-.478.878h.001l.003.002.007.004.025.013.086.045q.111.059.303.15c.254.121.608.28 1.007.428.396.147.859.292 1.325.376.45.08.996.121 1.511-.022l-.536-1.927c-.096.027-.297.039-.622-.02a6 6 0 0 1-.982-.282 10 10 0 0 1-1.17-.523l-.003-.001zm3.845 1.857a1.2 1.2 0 0 0 .49-.315l-1.462-1.364a.8.8 0 0 1 .326-.214zm-1.18-.654a72 72 0 0 0 5.44 11.593l1.725-1.012a70 70 0 0 1-5.286-11.268zm6.764 10.2c-.916-.477-2.272-.835-3.71-.457l.508 1.934c.834-.219 1.676-.017 2.278.297zm-3.706-.458a6.9 6.9 0 0 1-2.38.201c-.287-.026-.502-.063-.691-.092-.07-.01-.209-.032-.337-.033-.047 0-.227-.003-.427.076a1.02 1.02 0 0 0-.648.96l2-.018a.98.98 0 0 1-.615.918c-.177.07-.323.064-.327.064-.04 0-.046-.005.055.01.154.024.445.074.806.107a8.9 8.9 0 0 0 3.065-.257zm-4.483 1.103a1.04 1.04 0 0 0 .105.455q.043.089.079.146c.046.077.104.16.165.245.126.17.3.384.515.616a9 9 0 0 0 1.825 1.514c1.57.97 3.868 1.593 6.311 0l-1.091-1.675c-1.591 1.036-3.021.683-4.169-.027a7 7 0 0 1-1.408-1.17 5 5 0 0 1-.371-.443 1 1 0 0 1-.065-.094l.02.039a1 1 0 0 1 .036.092c.01.028.048.145.048.302zm8.454 2.139.674.739.002-.002.004-.004.04-.038.087-.09c.046-.051.18-.2.27-.398a1.13 1.13 0 0 0 .09-.626 1.06 1.06 0 0 0-.61-.803 1.2 1.2 0 0 0-.567-.103c-.131.006-.26.03-.373.056l.454 1.947c.048-.01.046-.007.012-.005-.015 0-.168.01-.357-.077a.95.95 0 0 1-.527-1.044 1 1 0 0 1 .054-.168c.03-.066.06-.105.065-.112l.01-.013-.007.007.002-.002.002-.002.001-.001h.001zm-.376-1.27c-.287.064-.862.066-1.511-.016-.664-.085-1.153-.226-1.307-.31l-.96 1.754c.504.276 1.314.45 2.014.54.715.09 1.57.125 2.204-.018zm-3.298.55-.215.977h.001l.003.001.008.002.025.005a8 8 0 0 0 .412.078c.267.045.638.1 1.053.138.412.037.884.06 1.35.032.454-.027.967-.104 1.423-.303l-.801-1.833c-.148.065-.394.119-.74.14-.334.019-.7.004-1.052-.028a12 12 0 0 1-1.25-.184h-.002zm2.808.538a58 58 0 0 0 2.8 4.149l1.606-1.192a56 56 0 0 1-2.704-4.006zm3.849 2.584a5.5 5.5 0 0 0-2.818.006l.532 1.928a3.5 3.5 0 0 1 1.793.004zm-2.82.007a7.3 7.3 0 0 1-2.544.26c-.308-.022-.54-.059-.74-.085-.076-.01-.218-.03-.348-.03-.048 0-.226.001-.423.081a1.02 1.02 0 0 0-.641.967l1.999-.036a.98.98 0 0 1-.606.922c-.174.07-.316.066-.318.066-.035 0-.037-.003.07.012.167.022.475.07.857.098a9.3 9.3 0 0 0 3.23-.328zm-4.696 1.206a1.04 1.04 0 0 0 .115.447c.029.057.06.107.083.145q.076.119.178.25c.135.178.322.398.554.64a9.5 9.5 0 0 0 1.955 1.563c1.674.995 4.1 1.608 6.638-.11l-1.121-1.656c-1.694 1.146-3.247.788-4.495.047a7.5 7.5 0 0 1-1.535-1.23 6 6 0 0 1-.409-.469 2 2 0 0 1-.075-.105c-.005-.007.004.006.018.033a1 1 0 0 1 .037.088c.01.026.05.14.056.296zm8.962 2.108.672.74h.001l.001-.002.003-.002.007-.007.063-.062a2 2 0 0 0 .136-.158l-1.594-1.208q.017-.022.02-.023l.006-.007.01-.008.001-.002.001-.001.001-.001zm-.679.549c1.618 1.921 3.304 3.592 5.02 4.924l1.226-1.58c-1.581-1.227-3.168-2.794-4.716-4.632zm6.611 4.343.398-1.863-1.956-.418-.397 1.863zm.055-2.845a31 31 0 0 1-2.277-2.07l-1.415 1.413a33 33 0 0 0 2.422 2.203zM22.65 76v.002h2V76zM9.37 21.343c.771-.074 1.58-.426 2.126-.7a12 12 0 0 0 .999-.569l.005-.003.002-.001.001-.001-.55-.836-.549-.835h.001-.001l-.009.006-.209.128a10 10 0 0 1-.59.324c-.505.255-1.035.46-1.416.496zm1.809-2.742c-.073.09-.394.345-.9.62-.49.268-.937.437-1.168.47l.286 1.98c.59-.086 1.288-.392 1.841-.694.538-.294 1.157-.702 1.49-1.112zm-2.093 1.094-.126.025.431 1.953.019-.004.012-.002zm1.052 1.273.097-.342-1.92-.56-.102.358zm-1.863-.622v.002h2v-.002zm-.214 7.951c.727-.217 1.434-.686 1.908-1.04a11 11 0 0 0 .853-.709l.001-.001h.001l-.686-.728-.687-.727-.007.007a4 4 0 0 1-.174.154c-.122.105-.295.25-.5.402-.43.323-.906.613-1.281.726zm1.2-2.957-.016.024-.047.063a3 3 0 0 1-.17.19 6 6 0 0 1-.527.473c-.432.344-.837.58-1.053.65l.609 1.905c.567-.182 1.202-.602 1.69-.992.476-.379 1.013-.888 1.268-1.354zM7.28 26.81a1 1 0 0 1 .086-.04 1 1 0 0 1 .206-.056l.31 1.976c.184-.03.315-.102.343-.117zm1.44 1.015q.02-.17.046-.35l-1.982-.273-.05.377zm3.838 30.988c.677-.502 1.195-1.31 1.515-1.884a11 11 0 0 0 .536-1.1l.008-.021.003-.007.001-.002v-.001l-.928-.372-.928-.371v-.001.002l-.026.06-.086.194a9 9 0 0 1-.327.646c-.297.533-.645 1.017-.959 1.25zm.136-3.436v.009l-.004.023q-.004.03-.016.082-.024.105-.077.258a6 6 0 0 1-.297.689c-.263.52-.552.926-.736 1.088l1.321 1.501c.474-.416.902-1.096 1.2-1.687.157-.311.297-.634.402-.936.1-.287.19-.619.205-.929zm-1.141 2.159a2 2 0 0 0-.183.185l1.508 1.315.002-.003.017-.016zm1.49.448-.16-.37-1.837.792.159.366zm-1.079-.974h-.001v2h.001zm4.238 7.316-.188-.337-1.75.967c.064.118.133.24.193.347zm-.217.679c.395-.628.641-1.382.787-1.928a11 11 0 0 0 .203-.923l.01-.061.003-.019v-.007l.001-.001-.989-.148-.989-.148v-.001l-.001.009-.007.04-.03.166a9 9 0 0 1-.134.578c-.128.481-.312 1.005-.547 1.378zm-.97-2.92c.017.105.002.463-.117.985-.112.491-.28.964-.444 1.261l1.752.966c.284-.516.505-1.182.642-1.781.13-.568.226-1.252.138-1.766zm4.618 7.603q-.052-.077-.105-.15l-.102-.145-1.638 1.147.106.15.102.146zm-.2.842c.456-.668.725-1.526.878-2.141a12 12 0 0 0 .213-1.058l.01-.071.003-.02v-.007l.001-.002v-.001l-.992-.128-.992-.127v.001l-.008.06-.032.195a10 10 0 0 1-.143.673c-.14.558-.34 1.132-.59 1.499zm-.869-3.238c.024.124.01.548-.122 1.133-.126.562-.31 1.051-.467 1.296l1.682 1.081c.343-.533.59-1.285.736-1.939.142-.63.242-1.397.135-1.95zm.252 1.97h-.002v2h.002zm1.418 4.775c-.311.078-.928.09-1.621.013-.707-.078-1.24-.221-1.42-.315l-.929 1.77c.53.279 1.381.45 2.128.533.76.084 1.662.105 2.325-.06zm-3.505.583-.171.986h.002l.007.001.023.004.08.013.287.041c.24.032.574.07.955.096.731.05 1.751.063 2.599-.17l-.529-1.928c-.507.14-1.246.15-1.935.102a13 13 0 0 1-1.069-.117l-.06-.01-.015-.002h-.002zm2.739.635.305.376 1.546-1.27-.294-.361zm.969-1.253c.003 0 .006 0 0 0l-.039.004a1 1 0 0 0-.15.026l.456 1.948-.077.013h-.006l.035-.003zm-.961 1.004v.001h2v-.001zm4.5.784c.329-.767.447-1.692.493-2.356a13 13 0 0 0 .026-1.2v-.021l-.001-.007v-.003l-1 .043-.998.043v.013l.002.053.002.211c0 .183-.006.44-.026.73-.042.606-.143 1.256-.336 1.705zm-1.407-3.164c.06.146.135.62.12 1.27-.015.632-.11 1.18-.224 1.449l1.842.78c.261-.617.364-1.465.381-2.181.017-.7-.042-1.526-.268-2.077zm1.53 2.407-.317-.325-1.451 1.376c.116.122.236.244.343.352z" data-color="2"></path>
    </g>
</svg>