<svg data-bbox="0 0 30.25 28.5" xmlns="http://www.w3.org/2000/svg" viewBox="0 0 31 29" height="29" width="31" data-type="color">
    <g>
        <path fill="#ffffff" d="M12.75.75A.75.75 0 0 1 13.5 0h16a.75.75 0 0 1 .75.75v27a.75.75 0 0 1-.75.75h-16a.75.75 0 0 1-.75-.75v-4.5a.75.75 0 0 1 1.5 0V27h14.5V1.5h-14.5v3.75a.75.75 0 0 1-1.5 0zM8.47 9.22a.75.75 0 0 1 1.06 0l6 6A.75.75 0 0 1 15 16.5H.75a.75.75 0 0 1 0-1.5h12.44l-4.72-4.72a.75.75 0 0 1 0-1.06" clip-rule="evenodd" fill-rule="evenodd" data-color="1"></path>
    </g>
</svg>