<svg preserveAspectRatio="xMidYMid meet" data-bbox="0 0 59.37 60" xmlns="http://www.w3.org/2000/svg" viewBox="0 0 59.37 60" height="60" width="60" data-type="color" role="presentation" aria-hidden="true" aria-label="">
    <g>
        <path fill="#ffffff" d="M47.496 6.63c-2.021-1.516-4.927-1.074-6.443.947-1.515 2.022-1.073 4.927.948 6.443 5.179 3.852 8.148 9.79 8.148 16.295 0 11.305-9.222 20.463-20.464 20.463S9.22 41.558 9.22 30.315c0-6.506 2.969-12.443 8.148-16.295 2.02-1.516 2.463-4.421.947-6.443-1.516-2.02-4.421-2.463-6.442-.947C4.42 12.188 0 21.03 0 30.315 0 46.673 13.327 60 29.685 60S59.37 46.673 59.37 30.315c0-9.285-4.421-18.127-11.874-23.685" data-color="1"></path>
        <path fill="#ffffff" d="M29.689 37.77c2.526 0 4.61-2.085 4.61-4.611V4.61C34.3 2.084 32.215 0 29.69 0s-4.61 2.084-4.61 4.61v28.55c0 2.526 2.083 4.61 4.61 4.61" data-color="1"></path>
    </g>
</svg>