<svg preserveAspectRatio="xMidYMid meet" data-bbox="0.5 0.5 35 18" xmlns="http://www.w3.org/2000/svg" viewBox="0 0 36 19" height="19" width="36" data-type="ugc" role="presentation" aria-hidden="true" aria-label="">
    <g>
        <path stroke="#FF4830" d="M35.5 5v9a4.5 4.5 0 0 1-4.5 4.5H5A4.5 4.5 0 0 1 .5 14V5A4.5 4.5 0 0 1 5 .5h26A4.5 4.5 0 0 1 35.5 5z" fill="none"></path>
        <path fill="#FF4830" d="M8.298 6.642H9.39v7.532c0 .658.168.784.952.784h2.716c.812 0 .938-.462 1.05-2.688.266.196.714.392 1.022.462-.168 2.52-.49 3.276-2.016 3.276h-2.856c-1.526 0-1.96-.392-1.96-1.862zm.028-2.618.686-.742a49 49 0 0 1 3.542 2.59l-.7.854c-.812-.714-2.352-1.89-3.528-2.702M6.058 7.482l.98.252c-.308 1.554-.826 3.57-1.61 4.802l-.994-.406c.798-1.218 1.344-3.122 1.624-4.648m8.274.91.938-.434c.98 1.4 1.918 3.234 2.31 4.466l-1.008.504c-.35-1.246-1.302-3.136-2.24-4.536m.742-4.312 1.036.434c-2.296 4.368-5.992 8.4-10.976 10.78a5.4 5.4 0 0 0-.686-.826c4.83-2.198 8.596-6.244 10.626-10.388m7-.602.98.42c-.966 1.162-2.464 2.31-3.738 3.038a4 4 0 0 0-.784-.756c1.218-.63 2.702-1.694 3.542-2.702m.252 3.934.966.406c-.952 1.274-2.464 2.492-3.808 3.276a4.6 4.6 0 0 0-.77-.812c1.288-.644 2.8-1.764 3.612-2.87m.308 3.934.98.378c-.98 1.68-2.632 3.164-4.368 4.088a4.2 4.2 0 0 0-.756-.84c1.638-.77 3.276-2.142 4.144-3.626m.84-7.406h7.882v.896h-7.882zm1.638 5.138v1.358h4.718V9.078zm0 2.142v1.386h4.718V11.22zm0-4.27v1.344h4.718V6.95zm-.994-.812h6.748v7.28h-6.748zm2.73-1.778 1.204.168c-.238.798-.532 1.68-.77 2.268l-.952-.182c.196-.63.42-1.596.518-2.254m-1.162 9.352.91.588c-.896.714-2.324 1.428-3.57 1.834-.14-.224-.448-.532-.658-.742 1.204-.378 2.632-1.078 3.318-1.68m2.366.63.798-.574c.938.476 2.184 1.218 2.828 1.75l-.826.63c-.602-.518-1.834-1.302-2.8-1.806"></path>
    </g>
</svg>