<svg preserveAspectRatio="xMidYMid meet" data-bbox="2 1 25 80" xmlns="http://www.w3.org/2000/svg" viewBox="0 0 28 83" height="83" width="28" data-type="ugc" role="presentation" aria-hidden="true" aria-label="">
    <g>
        <mask fill="#000000" height="83" width="28" y="0" x="0" maskUnits="userSpaceOnUse" id="bed2b86b-d491-4570-95df-1d617469008c_comp-m47xz7x7">
            <path fill="#ffffff" d="M28 0v83H0V0z"></path>
            <path d="M16.405 14.672c.464-.089-.49-1.858-2.25-2.064-1.758-.203-2.576-1.035-2.625-.921-.055.131.91 4.282 4.506 3.535 0 0 .476-.175-.018-.247-.699-.107-1.96-.827-2.303-1.259 0 0 1.71 1.145 2.692.956zm2.3 47.124c-2.303-.232-4.008 1.755-3.447 1.998 1.192.518 3.666-.468 3.666-.468-.572.455-2.393 1.019-3.316.954-.654-.046-.103.314-.103.314 4.34 1.952 6.85-3.054 6.822-3.236-.025-.157-1.326.67-3.622.438m4.168-13.623c-1.522.166-2.574 1.253-2.909 1.966a61 61 0 0 0 1.178-5.91c1.215.189 3.26-1.277 3.26-1.277-.407.545-1.922 1.477-2.778 1.633-.605.109-.012.306-.012.306 4.445.78 5.46-4.356 5.384-4.515-.063-.136-1.035.914-3.19 1.233-1.217.181-2.098.97-2.529 1.633q.088-.668.155-1.334a58 58 0 0 0 .264-4.399c1.208.046 3.027-1.563 3.027-1.563-.34.57-1.72 1.63-2.538 1.864-.58.163.022.301.022.301 4.424.327 4.864-4.786 4.774-4.933-.076-.129-.912.993-2.979 1.515-1.167.293-1.94 1.141-2.292 1.83a57 57 0 0 0-.214-5.13c.023.006.043.008.068.006 1.163-.26 2.423-2.308 2.423-2.308-.15.634-1.14 2.006-1.846 2.45-.499.308.11.278.11.278 4.284-.881 3.18-5.84 3.052-5.953-.111-.1-.568 1.186-2.37 2.236-.887.516-1.363 1.348-1.555 2.048a56 56 0 0 0-2.483-11.533c.061.044.127.055.186.021 1.02-.55 1.607-2.81 1.607-2.81.045.635-.485 2.19-1.02 2.794-.377.422.185.232.185.232 3.77-1.967 1.277-6.332 1.127-6.408-.136-.064-.19 1.267-1.575 2.73-.712.753-.903 1.711-.858 2.432a49 49 0 0 0-2.065-4.976q.005 0 .013-.003c.888-.445 1.449-2.364 1.449-2.364.018.542-.475 1.862-.95 2.361-.333.356.153.205.153.205 3.28-1.59 1.265-5.386 1.138-5.454-.116-.057-.194 1.08-1.42 2.296-.652.65-.83 1.5-.796 2.125a41 41 0 0 0-2.647-4.517c.813-.662.966-2.76.966-2.76.145.563-.075 2.04-.454 2.663-.27.442.203.183.203.183 3.067-2.336.105-5.892-.048-5.936-.13-.035.04 1.167-.963 2.695-.476.722-.521 1.537-.4 2.162a35 35 0 0 0-1.55-1.974c.037-.067.048-.196.048-.196C10.913.621 6.45.962 6.337 1.053c-.1.074.975.578 1.704 2.121.727 1.545 2.785 1.894 2.738 1.445-.1-.954-1.757-2.176-1.757-2.176.477.168 1.401.93 1.814 1.524l-.058.65a35 35 0 0 1 2.716 3.784c-.457-.446-1.145-.864-1.997-.931-1.884-.155-2.792-1.007-2.839-.887-.053.144 1.15 4.533 4.953 3.603 0 0 .502-.206-.03-.265-.75-.087-2.124-.806-2.51-1.255 0 0 1.873 1.16 2.914.92.08-.018.113-.088.113-.185 1.645 2.813 3.045 5.986 4.138 9.42a3.5 3.5 0 0 0-1.626-.64c-2.057-.242-3.01-1.21-3.067-1.08-.067.154 1.061 5.002 5.261 4.133 0 0 .06-.021.12-.053q.585 2.192 1 4.493a3.3 3.3 0 0 0-1.276-.712c-1.98-.584-2.74-1.698-2.818-1.58-.093.138.115 5.104 4.412 4.954 0 0 .044-.007.093-.023a57 57 0 0 1 .397 4.131c-.284-.672-.872-1.449-1.824-1.855-1.929-.818-2.554-2.037-2.65-1.925-.113.131-.538 5.18 3.832 5.531 0 0 .607-.044.07-.29-.76-.355-1.928-1.594-2.162-2.202 0 0 1.523 1.877 2.711 1.987a.15.15 0 0 0 .083-.016q.082 2.131.006 4.296a3.48 3.48 0 0 0-1.623-1.476c-1.945-.846-2.57-2.084-2.668-1.973-.114.133-.59 5.24 3.828 5.63 0 0 .618-.036.074-.292-.765-.363-1.937-1.63-2.168-2.245 0 0 1.322 1.655 2.477 1.98-.06.938-.144 1.873-.252 2.813q-.16 1.397-.403 2.8a3.42 3.42 0 0 0-1.337-1.64c-1.804-1.163-2.214-2.505-2.333-2.41-.14.113-1.516 5.17 2.856 6.27 0 0 .627.058.128-.284-.705-.486-1.662-1.944-1.785-2.602 0 0 1.04 1.875 2.142 2.389a59 59 0 0 1-1.137 4.594c-.13-.742-.526-1.62-1.349-2.241-1.762-1.325-2.075-2.738-2.205-2.65-.149.108-1.977 5.21 2.43 6.663 0 0 .64.105.154-.283-.688-.552-1.552-2.125-1.624-2.81 0 0 1.015 2.215 2.18 2.696a66 66 0 0 1-1.46 4.146 3.5 3.5 0 0 0-1.115-1.776c-1.684-1.415-1.919-2.84-2.05-2.755-.156.096-2.277 5.098 2.045 6.774 0 0 .095.022.186.022a67 67 0 0 1-1.765 3.772 3.3 3.3 0 0 0-.529-.982c-1.382-1.765-1.298-3.25-1.448-3.192-.179.067-3.335 4.545.39 7.126a58 58 0 0 1-1.79 2.944 3.5 3.5 0 0 0-.649-1.615c-1.37-1.831-1.248-3.344-1.408-3.289-.184.066-3.59 4.68.369 7.378a49 49 0 0 1-2.356 3.026c0-.531-.105-1.093-.367-1.644-1.042-2.169-.598-3.723-.778-3.696-.206.031-4.745 4.218-1.14 7.793 0 0 .014.008.03.021A33 33 0 0 1 2 79.112L2.397 81c1.645-1.294 3.276-2.93 4.86-4.835a1 1 0 0 0 .085.098c4.218 2.905 7.943-1.959 7.949-2.157.003-.17-1.552.462-3.956-.22a4.45 4.45 0 0 0-2.298-.008 56 56 0 0 0 2.747-4.125c1.208.538 3.654-.003 3.654-.003-.657.363-2.592.635-3.511.42-.647-.15-.156.301-.156.301 4.023 2.668 7.439-1.968 7.442-2.156.002-.161-1.453.46-3.726-.144-1.13-.3-2.229-.02-2.986.379a72.6 72.6 0 0 0 5.364-11.567.2.2 0 0 0 .083.05c1.22.347 3.517-.917 3.517-.917-.485.509-2.16 1.284-3.06 1.339-.636.038-.053.314-.053.314 4.453 1.328 6.165-3.81 6.108-3.985-.046-.146-1.179.814-3.423.887-1.318.039-2.344.788-2.856 1.43a70 70 0 0 0 1.676-5.531c.006.103.049.175.139.192 1.245.249 3.426-1.186 3.426-1.186-.444.546-2.044 1.445-2.935 1.57-.628.09-.029.317-.029.317 4.552.982 5.823-4.272 5.753-4.439-.06-.142-1.108.901-3.34 1.143zm-4.085-27.226c-.817-.122-2.288-.964-2.694-1.47 0 0 1.524 1.018 2.673 1.13.031.118.067.235.1.357-.028-.007-.046-.01-.08-.017m1.49 7.103c-.781-.257-2.075-1.337-2.378-1.9 0 0 1.257 1.208 2.356 1.543q.025.182.048.37c-.01-.003-.015-.009-.026-.013M4.614 76.686c-.374-.897-.392-2.827-.102-3.533 0 0-.09 1.957.43 3.19q-.161.171-.328.343m6.643-1.119c-.705.374-2.767.631-3.738.387-.03-.009-.046-.009-.07-.013q.15-.19.299-.374c1.352.378 3.509 0 3.509 0M9.182 71.15c-.497-.79-.857-2.514-.725-3.204 0 0 .231 1.856.934 2.905-.07.1-.143.2-.209.3m3.484-5.512c-.45-.826-.772-2.309-.665-2.935 0 0 .23 1.573.856 2.587l-.19.348m3.209-6.516a1 1 0 0 0-.1-.103c-.656-.585-1.43-2.2-1.462-2.89 0 0 .733 1.875 1.723 2.623q-.081.183-.161.37m4.92-34.472c1.1-.38 2.071-2.517 2.071-2.517-.067.633-.859 2.082-1.491 2.592-.445.36.142.263.142.263 4.061-1.346 2.364-6.047 2.225-6.145-.117-.082-.404 1.218-2.026 2.446-1.621 1.224-1.44 3.541-.92 3.36z"></path>
        </mask>
        <path fill="#F0A800" d="M16.405 14.672c.464-.089-.49-1.858-2.25-2.064-1.758-.203-2.576-1.035-2.625-.921-.055.131.91 4.282 4.506 3.535 0 0 .476-.175-.018-.247-.699-.107-1.96-.827-2.303-1.259 0 0 1.71 1.145 2.692.956zm2.3 47.124c-2.303-.232-4.008 1.755-3.447 1.998 1.192.518 3.666-.468 3.666-.468-.572.455-2.393 1.019-3.316.954-.654-.046-.103.314-.103.314 4.34 1.952 6.85-3.054 6.822-3.236-.025-.157-1.326.67-3.622.438m4.168-13.623c-1.522.166-2.574 1.253-2.909 1.966a61 61 0 0 0 1.178-5.91c1.215.189 3.26-1.277 3.26-1.277-.407.545-1.922 1.477-2.778 1.633-.605.109-.012.306-.012.306 4.445.78 5.46-4.356 5.384-4.515-.063-.136-1.035.914-3.19 1.233-1.217.181-2.098.97-2.529 1.633q.088-.668.155-1.334a58 58 0 0 0 .264-4.399c1.208.046 3.027-1.563 3.027-1.563-.34.57-1.72 1.63-2.538 1.864-.58.163.022.301.022.301 4.424.327 4.864-4.786 4.774-4.933-.076-.129-.912.993-2.979 1.515-1.167.293-1.94 1.141-2.292 1.83a57 57 0 0 0-.214-5.13c.023.006.043.008.068.006 1.163-.26 2.423-2.308 2.423-2.308-.15.634-1.14 2.006-1.846 2.45-.499.308.11.278.11.278 4.284-.881 3.18-5.84 3.052-5.953-.111-.1-.568 1.186-2.37 2.236-.887.516-1.363 1.348-1.555 2.048a56 56 0 0 0-2.483-11.533c.061.044.127.055.186.021 1.02-.55 1.607-2.81 1.607-2.81.045.635-.485 2.19-1.02 2.794-.377.422.185.232.185.232 3.77-1.967 1.277-6.332 1.127-6.408-.136-.064-.19 1.267-1.575 2.73-.712.753-.903 1.711-.858 2.432a49 49 0 0 0-2.065-4.976q.005 0 .013-.003c.888-.445 1.449-2.364 1.449-2.364.018.542-.475 1.862-.95 2.361-.333.356.153.205.153.205 3.28-1.59 1.265-5.386 1.138-5.454-.116-.057-.194 1.08-1.42 2.296-.652.65-.83 1.5-.796 2.125a41 41 0 0 0-2.647-4.517c.813-.662.966-2.76.966-2.76.145.563-.075 2.04-.454 2.663-.27.442.203.183.203.183 3.067-2.336.105-5.892-.048-5.936-.13-.035.04 1.167-.963 2.695-.476.722-.521 1.537-.4 2.162a35 35 0 0 0-1.55-1.974c.037-.067.048-.196.048-.196C10.913.621 6.45.962 6.337 1.053c-.1.074.975.578 1.704 2.121.727 1.545 2.785 1.894 2.738 1.445-.1-.954-1.757-2.176-1.757-2.176.477.168 1.401.93 1.814 1.524l-.058.65a35 35 0 0 1 2.716 3.784c-.457-.446-1.145-.864-1.997-.931-1.884-.155-2.792-1.007-2.839-.887-.053.144 1.15 4.533 4.953 3.603 0 0 .502-.206-.03-.265-.75-.087-2.124-.806-2.51-1.255 0 0 1.873 1.16 2.914.92.08-.018.113-.088.113-.185 1.645 2.813 3.045 5.986 4.138 9.42a3.5 3.5 0 0 0-1.626-.64c-2.057-.242-3.01-1.21-3.067-1.08-.067.154 1.061 5.002 5.261 4.133 0 0 .06-.021.12-.053q.585 2.192 1 4.493a3.3 3.3 0 0 0-1.276-.712c-1.98-.584-2.74-1.698-2.818-1.58-.093.138.115 5.104 4.412 4.954 0 0 .044-.007.093-.023a57 57 0 0 1 .397 4.131c-.284-.672-.872-1.449-1.824-1.855-1.929-.818-2.554-2.037-2.65-1.925-.113.131-.538 5.18 3.832 5.531 0 0 .607-.044.07-.29-.76-.355-1.928-1.594-2.162-2.202 0 0 1.523 1.877 2.711 1.987a.15.15 0 0 0 .083-.016q.082 2.131.006 4.296a3.48 3.48 0 0 0-1.623-1.476c-1.945-.846-2.57-2.084-2.668-1.973-.114.133-.59 5.24 3.828 5.63 0 0 .618-.036.074-.292-.765-.363-1.937-1.63-2.168-2.245 0 0 1.322 1.655 2.477 1.98-.06.938-.144 1.873-.252 2.813q-.16 1.397-.403 2.8a3.42 3.42 0 0 0-1.337-1.64c-1.804-1.163-2.214-2.505-2.333-2.41-.14.113-1.516 5.17 2.856 6.27 0 0 .627.058.128-.284-.705-.486-1.662-1.944-1.785-2.602 0 0 1.04 1.875 2.142 2.389a59 59 0 0 1-1.137 4.594c-.13-.742-.526-1.62-1.349-2.241-1.762-1.325-2.075-2.738-2.205-2.65-.149.108-1.977 5.21 2.43 6.663 0 0 .64.105.154-.283-.688-.552-1.552-2.125-1.624-2.81 0 0 1.015 2.215 2.18 2.696a66 66 0 0 1-1.46 4.146 3.5 3.5 0 0 0-1.115-1.776c-1.684-1.415-1.919-2.84-2.05-2.755-.156.096-2.277 5.098 2.045 6.774 0 0 .095.022.186.022a67 67 0 0 1-1.765 3.772 3.3 3.3 0 0 0-.529-.982c-1.382-1.765-1.298-3.25-1.448-3.192-.179.067-3.335 4.545.39 7.126a58 58 0 0 1-1.79 2.944 3.5 3.5 0 0 0-.649-1.615c-1.37-1.831-1.248-3.344-1.408-3.289-.184.066-3.59 4.68.369 7.378a49 49 0 0 1-2.356 3.026c0-.531-.105-1.093-.367-1.644-1.042-2.169-.598-3.723-.778-3.696-.206.031-4.745 4.218-1.14 7.793 0 0 .014.008.03.021A33 33 0 0 1 2 79.112L2.397 81c1.645-1.294 3.276-2.93 4.86-4.835a1 1 0 0 0 .085.098c4.218 2.905 7.943-1.959 7.949-2.157.003-.17-1.552.462-3.956-.22a4.45 4.45 0 0 0-2.298-.008 56 56 0 0 0 2.747-4.125c1.208.538 3.654-.003 3.654-.003-.657.363-2.592.635-3.511.42-.647-.15-.156.301-.156.301 4.023 2.668 7.439-1.968 7.442-2.156.002-.161-1.453.46-3.726-.144-1.13-.3-2.229-.02-2.986.379a72.6 72.6 0 0 0 5.364-11.567.2.2 0 0 0 .083.05c1.22.347 3.517-.917 3.517-.917-.485.509-2.16 1.284-3.06 1.339-.636.038-.053.314-.053.314 4.453 1.328 6.165-3.81 6.108-3.985-.046-.146-1.179.814-3.423.887-1.318.039-2.344.788-2.856 1.43a70 70 0 0 0 1.676-5.531c.006.103.049.175.139.192 1.245.249 3.426-1.186 3.426-1.186-.444.546-2.044 1.445-2.935 1.57-.628.09-.029.317-.029.317 4.552.982 5.823-4.272 5.753-4.439-.06-.142-1.108.901-3.34 1.143zm-4.085-27.226c-.817-.122-2.288-.964-2.694-1.47 0 0 1.524 1.018 2.673 1.13.031.118.067.235.1.357-.028-.007-.046-.01-.08-.017m1.49 7.103c-.781-.257-2.075-1.337-2.378-1.9 0 0 1.257 1.208 2.356 1.543q.025.182.048.37c-.01-.003-.015-.009-.026-.013M4.614 76.686c-.374-.897-.392-2.827-.102-3.533 0 0-.09 1.957.43 3.19q-.161.171-.328.343m6.643-1.119c-.705.374-2.767.631-3.738.387-.03-.009-.046-.009-.07-.013q.15-.19.299-.374c1.352.378 3.509 0 3.509 0M9.182 71.15c-.497-.79-.857-2.514-.725-3.204 0 0 .231 1.856.934 2.905-.07.1-.143.2-.209.3m3.484-5.512c-.45-.826-.772-2.309-.665-2.935 0 0 .23 1.573.856 2.587l-.19.348m3.209-6.516a1 1 0 0 0-.1-.103c-.656-.585-1.43-2.2-1.462-2.89 0 0 .733 1.875 1.723 2.623q-.081.183-.161.37m4.92-34.472c1.1-.38 2.071-2.517 2.071-2.517-.067.633-.859 2.082-1.491 2.592-.445.36.142.263.142.263 4.061-1.346 2.364-6.047 2.225-6.145-.117-.082-.404 1.218-2.026 2.446-1.621 1.224-1.44 3.541-.92 3.36z"></path>
        <path mask="url(#bed2b86b-d491-4570-95df-1d617469008c_comp-m47xz7x7)" stroke-width="2" stroke="#FFEA00" d="M16.405 14.672c.464-.089-.49-1.858-2.25-2.064-1.758-.203-2.576-1.035-2.625-.921-.055.131.91 4.282 4.506 3.535 0 0 .476-.175-.018-.247-.699-.107-1.96-.827-2.303-1.259 0 0 1.71 1.145 2.692.956zm2.3 47.124c-2.303-.232-4.008 1.755-3.447 1.998 1.192.518 3.666-.468 3.666-.468-.572.455-2.393 1.019-3.316.954-.654-.046-.103.314-.103.314 4.34 1.952 6.85-3.054 6.822-3.236-.025-.157-1.326.67-3.622.438Zm4.168-13.623c-1.522.166-2.574 1.253-2.909 1.966a61 61 0 0 0 1.178-5.91c1.215.189 3.26-1.277 3.26-1.277-.407.545-1.922 1.477-2.778 1.633-.605.109-.012.306-.012.306 4.445.78 5.46-4.356 5.384-4.515-.063-.136-1.035.914-3.19 1.233-1.217.181-2.098.97-2.529 1.633q.088-.668.155-1.334a58 58 0 0 0 .264-4.399c1.208.046 3.027-1.563 3.027-1.563-.34.57-1.72 1.63-2.538 1.864-.58.163.022.301.022.301 4.424.327 4.864-4.786 4.774-4.933-.076-.129-.912.993-2.979 1.515-1.167.293-1.94 1.141-2.292 1.83a57 57 0 0 0-.214-5.13c.023.006.043.008.068.006 1.163-.26 2.423-2.308 2.423-2.308-.15.634-1.14 2.006-1.846 2.45-.499.308.11.278.11.278 4.284-.881 3.18-5.84 3.052-5.953-.111-.1-.568 1.186-2.37 2.236-.887.516-1.363 1.348-1.555 2.048a56 56 0 0 0-2.483-11.533c.061.044.127.055.186.021 1.02-.55 1.607-2.81 1.607-2.81.045.635-.485 2.19-1.02 2.794-.377.422.185.232.185.232 3.77-1.967 1.277-6.332 1.127-6.408-.136-.064-.19 1.267-1.575 2.73-.712.753-.903 1.711-.858 2.432a49 49 0 0 0-2.065-4.976q.005 0 .013-.003c.888-.445 1.449-2.364 1.449-2.364.018.542-.475 1.862-.95 2.361-.333.356.153.205.153.205 3.28-1.59 1.265-5.386 1.138-5.454-.116-.057-.194 1.08-1.42 2.296-.652.65-.83 1.5-.796 2.125a41 41 0 0 0-2.647-4.517c.813-.662.966-2.76.966-2.76.145.563-.075 2.04-.454 2.663-.27.442.203.183.203.183 3.067-2.336.105-5.892-.048-5.936-.13-.035.04 1.167-.963 2.695-.476.722-.521 1.537-.4 2.162a35 35 0 0 0-1.55-1.974c.037-.067.048-.196.048-.196C10.913.621 6.45.962 6.337 1.053c-.1.074.975.578 1.704 2.121.727 1.545 2.785 1.894 2.738 1.445-.1-.954-1.757-2.176-1.757-2.176.477.168 1.401.93 1.814 1.524l-.058.65a35 35 0 0 1 2.716 3.784c-.457-.446-1.145-.864-1.997-.931-1.884-.155-2.792-1.007-2.839-.887-.053.144 1.15 4.533 4.953 3.603 0 0 .502-.206-.03-.265-.75-.087-2.124-.806-2.51-1.255 0 0 1.873 1.16 2.914.92.08-.018.113-.088.113-.185 1.645 2.813 3.045 5.986 4.138 9.42a3.5 3.5 0 0 0-1.626-.64c-2.057-.242-3.01-1.21-3.067-1.08-.067.154 1.061 5.002 5.261 4.133 0 0 .06-.021.12-.053q.585 2.192 1 4.493a3.3 3.3 0 0 0-1.276-.712c-1.98-.584-2.74-1.698-2.818-1.58-.093.138.115 5.104 4.412 4.954 0 0 .044-.007.093-.023a57 57 0 0 1 .397 4.131c-.284-.672-.872-1.449-1.824-1.855-1.929-.818-2.554-2.037-2.65-1.925-.113.131-.538 5.18 3.832 5.531 0 0 .607-.044.07-.29-.76-.355-1.928-1.594-2.162-2.202 0 0 1.523 1.877 2.711 1.987a.15.15 0 0 0 .083-.016q.082 2.131.006 4.296a3.48 3.48 0 0 0-1.623-1.476c-1.945-.846-2.57-2.084-2.668-1.973-.114.133-.59 5.24 3.828 5.63 0 0 .618-.036.074-.292-.765-.363-1.937-1.63-2.168-2.245 0 0 1.322 1.655 2.477 1.98-.06.938-.144 1.873-.252 2.813q-.16 1.397-.403 2.8a3.42 3.42 0 0 0-1.337-1.64c-1.804-1.163-2.214-2.505-2.333-2.41-.14.113-1.516 5.17 2.856 6.27 0 0 .627.058.128-.284-.705-.486-1.662-1.944-1.785-2.602 0 0 1.04 1.875 2.142 2.389a59 59 0 0 1-1.137 4.594c-.13-.742-.526-1.62-1.349-2.241-1.762-1.325-2.075-2.738-2.205-2.65-.149.108-1.977 5.21 2.43 6.663 0 0 .64.105.154-.283-.688-.552-1.552-2.125-1.624-2.81 0 0 1.015 2.215 2.18 2.696a66 66 0 0 1-1.46 4.146 3.5 3.5 0 0 0-1.115-1.776c-1.684-1.415-1.919-2.84-2.05-2.755-.156.096-2.277 5.098 2.045 6.774 0 0 .095.022.186.022a67 67 0 0 1-1.765 3.772 3.3 3.3 0 0 0-.529-.982c-1.382-1.765-1.298-3.25-1.448-3.192-.179.067-3.335 4.545.39 7.126a58 58 0 0 1-1.79 2.944 3.5 3.5 0 0 0-.649-1.615c-1.37-1.831-1.248-3.344-1.408-3.289-.184.066-3.59 4.68.369 7.378a49 49 0 0 1-2.356 3.026c0-.531-.105-1.093-.367-1.644-1.042-2.169-.598-3.723-.778-3.696-.206.031-4.745 4.218-1.14 7.793 0 0 .014.008.03.021A33 33 0 0 1 2 79.112L2.397 81c1.645-1.294 3.276-2.93 4.86-4.835a1 1 0 0 0 .085.098c4.218 2.905 7.943-1.959 7.949-2.157.003-.17-1.552.462-3.956-.22a4.45 4.45 0 0 0-2.298-.008 56 56 0 0 0 2.747-4.125c1.208.538 3.654-.003 3.654-.003-.657.363-2.592.635-3.511.42-.647-.15-.156.301-.156.301 4.023 2.668 7.439-1.968 7.442-2.156.002-.161-1.453.46-3.726-.144-1.13-.3-2.229-.02-2.986.379a72.6 72.6 0 0 0 5.364-11.567.2.2 0 0 0 .083.05c1.22.347 3.517-.917 3.517-.917-.485.509-2.16 1.284-3.06 1.339-.636.038-.053.314-.053.314 4.453 1.328 6.165-3.81 6.108-3.985-.046-.146-1.179.814-3.423.887-1.318.039-2.344.788-2.856 1.43a70 70 0 0 0 1.676-5.531c.006.103.049.175.139.192 1.245.249 3.426-1.186 3.426-1.186-.444.546-2.044 1.445-2.935 1.57-.628.09-.029.317-.029.317 4.552.982 5.823-4.272 5.753-4.439-.06-.142-1.108.901-3.34 1.143zm-4.085-27.226c-.817-.122-2.288-.964-2.694-1.47 0 0 1.524 1.018 2.673 1.13.031.118.067.235.1.357-.028-.007-.046-.01-.08-.017Zm1.49 7.103c-.781-.257-2.075-1.337-2.378-1.9 0 0 1.257 1.208 2.356 1.543q.025.182.048.37c-.01-.003-.015-.009-.026-.013ZM4.614 76.686c-.374-.897-.392-2.827-.102-3.533 0 0-.09 1.957.43 3.19q-.161.171-.328.343Zm6.643-1.119c-.705.374-2.767.631-3.738.387-.03-.009-.046-.009-.07-.013q.15-.19.299-.374c1.352.378 3.509 0 3.509 0ZM9.182 71.15c-.497-.79-.857-2.514-.725-3.204 0 0 .231 1.856.934 2.905-.07.1-.143.2-.209.3Zm3.484-5.512c-.45-.826-.772-2.309-.665-2.935 0 0 .23 1.573.856 2.587l-.19.348Zm3.209-6.516a1 1 0 0 0-.1-.103c-.656-.585-1.43-2.2-1.462-2.89 0 0 .733 1.875 1.723 2.623q-.081.183-.161.37Zm4.92-34.472c1.1-.38 2.071-2.517 2.071-2.517-.067.633-.859 2.082-1.491 2.592-.445.36.142.263.142.263 4.061-1.346 2.364-6.047 2.225-6.145-.117-.082-.404 1.218-2.026 2.446-1.621 1.224-1.44 3.541-.92 3.36z" fill="none"></path>
    </g>
</svg>