<svg data-bbox="0 0 36 29" xmlns="http://www.w3.org/2000/svg" viewBox="0 0 36 29" height="29" width="36" data-type="color">
    <g>
        <path fill="#ffffff" d="M3.6 1.568c-.994 0-1.8.701-1.8 1.567v12.54h32.4V3.136c0-.866-.806-1.567-1.8-1.567zM36 3.135C36 1.404 34.388 0 32.4 0H3.6C1.612 0 0 1.404 0 3.135v15.676c0 1.731 1.612 3.135 3.6 3.135h11.7v2.351h-.675c-.908 0-1.66.427-2.155 1.002a3.27 3.27 0 0 0-.77 2.133v.784c0 .433.403.784.9.784h10.8c.497 0 .9-.35.9-.784v-.784c0-.803-.28-1.56-.774-2.134a2.83 2.83 0 0 0-2.151-1H20.7v-2.352h11.7c1.988 0 3.6-1.404 3.6-3.135zm-1.8 14.108H1.8v1.568c0 .866.806 1.567 1.8 1.567h28.8c.994 0 1.8-.701 1.8-1.567zm-15.3 4.703h-1.8v2.351h1.8zm-4.275 3.919c-.217 0-.478.099-.714.374-.237.276-.411.694-.411 1.193h9c0-.497-.175-.915-.414-1.192-.238-.277-.5-.375-.711-.375z" clip-rule="evenodd" fill-rule="evenodd" data-color="1"></path>
        <path fill="#ffffff" d="m24.49 10.598.648.395c-.284.43-.737.6-1.45.6-1.158 0-1.774-.656-1.774-1.594v-.48c0-1.037.583-1.58 1.644-1.58 1.11 0 1.637.578 1.637 1.622v.388h-2.422v.014c0 .55.243.981.883.981.478 0 .672-.127.834-.346m-.932-2.003c-.502 0-.737.296-.777.776h1.547c-.032-.515-.276-.776-.77-.776" data-color="1"></path>
        <path fill="#ffffff" d="m20.543 10.598.648.395c-.284.43-.737.6-1.45.6-1.158 0-1.774-.656-1.774-1.594v-.48c0-1.037.583-1.58 1.644-1.58 1.11 0 1.636.578 1.636 1.622v.388h-2.421v.014c0 .55.242.981.882.981.478 0 .673-.127.835-.346m-.932-2.003c-.502 0-.737.296-.777.776h1.547c-.033-.515-.276-.776-.77-.776" data-color="1"></path>
        <path fill="#ffffff" d="m17.785 8.46-.688.424a.7.7 0 0 0-.583-.275c-.438 0-.745.282-.745.79v2.13h-.867V8.003h.85v.318c.154-.205.43-.381.908-.381.518 0 .874.176 1.125.522" data-color="1"></path>
        <path fill="#ffffff" d="M10.8 6.662h3.426v.713H11.74V8.77h2.243v.706H11.74v2.053h-.94z" data-color="1"></path>
    </g>
</svg>