<svg preserveAspectRatio="xMidYMid meet" data-bbox="0 0 26 20.506" xmlns="http://www.w3.org/2000/svg" viewBox="0 0 26 20.506" height="21" width="26" data-type="color" role="presentation" aria-hidden="true" aria-label="">
    <g>
        <path fill="#ffffff" d="M23.644 0H2.362C1.057 0 0 1.004 0 2.243v12.568c0 1.24 1.057 2.244 2.362 2.244H10v2.177H6.339c-.37 0-.671.285-.671.637s.3.637.671.637h13.322c.37 0 .671-.285.671-.637s-.3-.637-.671-.637h-3.66v-2.177h7.637c1.305 0 2.362-1.005 2.362-2.244V2.243C26 1.004 24.943 0 23.638 0zM2.362 1.275h21.282c.563 0 1.02.433 1.02.968v11.819H1.342V2.243c0-.535.456-.968 1.02-.968m12.302 17.957h-3.317v-2.177h3.317zm8.98-3.452H2.362c-.516 0-.94-.362-1.01-.83h23.3c-.069.468-.498.83-1.008.83" data-color="1"></path>
    </g>
</svg>